<?xml version="1.0" encoding="UTF-8"?>
<svg width="26px" height="26px" viewBox="0 0 26 26" version="1.1" xmlns="http://www.w3.org/2000/svg" xmlns:xlink="http://www.w3.org/1999/xlink">
    <!-- Generator: sketchtool 50.2 (55047) - http://www.bohemiancoding.com/sketch -->
    <title>3423EDCE-1255-46FA-AF93-2086117CDF39</title>
    <desc>Created with sketchtool.</desc>
    <defs>
        <rect id="path-1" x="0" y="0" width="26" height="26"></rect>
    </defs>
    <g id="Anasayfa-v2" stroke="none" stroke-width="1" fill="none" fill-rule="evenodd">
        <g transform="translate(-221.000000, -242.000000)" id="gidasekerleme">
            <g transform="translate(221.000000, 242.000000)">
                <mask id="mask-2" fill="white">
                    <use xlink:href="#path-1"></use>
                </mask>
                <g id="mask"></g>
                <g id="sweets" mask="url(#mask-2)" fill="#000000" fill-rule="nonzero">
                    <g transform="translate(0.722222, 0.722222)" id="XMLID_673_">
                        <path d="M5.028338,9.01846519 C5.028338,8.78521758 4.83836064,8.59613377 4.60401079,8.59613377 L2.61452238,8.59613377 C2.38017253,8.59613377 2.19019518,8.78521758 2.19019518,9.01846519 L2.19019518,12.5564562 C2.19019518,12.7897038 2.38017253,12.9787876 2.61452238,12.9787876 L4.60401079,12.9787876 C4.83836064,12.9787876 5.028338,12.7897038 5.028338,12.5564562 L5.028338,9.01846519 Z M4.17968359,12.1341248 L3.03884959,12.1341248 L3.03884959,9.44079661 L4.17968359,9.44079661 L4.17968359,12.1341248 Z M12.982897,3.23409337 C12.982897,3.00084575 12.7929197,2.81176194 12.5585698,2.81176194 L10.5690814,2.81176194 C10.3347315,2.81176194 10.1447542,3.00084575 10.1447542,3.23409337 L10.1447542,6.77208436 C10.1447542,7.00533197 10.3347315,7.19441578 10.5690814,7.19441578 L12.5585698,7.19441578 C12.7929197,7.19441578 12.982897,7.00533197 12.982897,6.77208436 L12.982897,3.23409337 Z M12.1342426,6.34981327 L10.9934086,6.34981327 L10.9934086,3.65642479 L12.1342426,3.65642479 L12.1342426,6.34981327 Z M8.58122968,8.59613377 L6.59180189,8.59613377 C6.35745204,8.59613377 6.16747469,8.78521758 6.16747469,9.01846519 L6.16747469,12.5564562 C6.16747469,12.7897038 6.35745204,12.9787876 6.59180189,12.9787876 L8.58122968,12.9787876 C8.81557954,12.9787876 9.00555689,12.7897038 9.00555689,12.5564562 L9.00555689,9.01846519 C9.00555689,8.78521758 8.81557954,8.59613377 8.58122968,8.59613377 Z M8.15690248,12.1341248 L7.0161291,12.1341248 L7.0161291,9.44079661 L8.15690248,9.44079661 L8.15690248,12.1341248 Z M12.1342426,15.5290661 L12.1342426,15.2250478 L10.9934086,15.2250478 L10.9934086,16.1453683 C10.9934086,16.3786159 10.8034313,16.5676997 10.5690814,16.5676997 C10.3347315,16.5676997 10.1447542,16.3786159 10.1447542,16.1453683 L10.1447542,14.8027164 C10.1447542,14.5694687 10.3347315,14.3803849 10.5690814,14.3803849 L12.5585698,14.3803849 C12.7929197,14.3803849 12.982897,14.5694687 12.982897,14.8027164 L12.982897,15.5290661 C12.982897,15.7623137 12.7929197,15.9513975 12.5585698,15.9513975 C12.32422,15.9513975 12.1342426,15.7623137 12.1342426,15.5290661 Z M5.1450886,21.1278534 C5.1450886,21.361101 4.95511124,21.5501848 4.72076139,21.5501848 L0.424327205,21.5501848 C0.189977351,21.5501848 0,21.361101 0,21.1278534 L0,0.447067977 C0,0.213820366 0.189977351,0.0247365547 0.424327205,0.0247365547 L14.7488256,0.0247365547 C14.9831755,0.0247365547 15.1731528,0.213820366 15.1731528,0.447067977 L15.1731528,15.5290661 C15.1731528,15.7623137 14.9831755,15.9513975 14.7488256,15.9513975 C14.5144758,15.9513975 14.3244984,15.7623137 14.3244984,15.5290661 L14.3244984,0.869399399 L0.84865441,0.869399399 L0.84865441,20.7054616 L4.72076139,20.7054616 C4.95511124,20.705522 5.1450886,20.8945455 5.1450886,21.1278534 Z M9.00555689,3.23409337 C9.00555689,3.00084575 8.81557954,2.81176194 8.58122968,2.81176194 L6.59180189,2.81176194 C6.35745204,2.81176194 6.16747469,3.00084575 6.16747469,3.23409337 L6.16747469,6.77208436 C6.16747469,7.00533197 6.35745204,7.19441578 6.59180189,7.19441578 L8.58122968,7.19441578 C8.81557954,7.19441578 9.00555689,7.00533197 9.00555689,6.77208436 L9.00555689,3.23409337 Z M8.15690248,6.34981327 L7.0161291,6.34981327 L7.0161291,3.65642479 L8.15690248,3.65642479 L8.15690248,6.34981327 Z M12.982897,9.01846519 C12.982897,8.78521758 12.7929197,8.59613377 12.5585698,8.59613377 L10.5690814,8.59613377 C10.3347315,8.59613377 10.1447542,8.78521758 10.1447542,9.01846519 L10.1447542,12.5564562 C10.1447542,12.7897038 10.3347315,12.9787876 10.5690814,12.9787876 L12.5585698,12.9787876 C12.7929197,12.9787876 12.982897,12.7897038 12.982897,12.5564562 L12.982897,9.01846519 Z M12.1342426,12.1341248 L10.9934086,12.1341248 L10.9934086,9.44079661 L12.1342426,9.44079661 L12.1342426,12.1341248 Z M19.5225673,14.1543773 C19.5225673,13.9211297 19.7125446,13.7320459 19.9468945,13.7320459 C20.1812443,13.7320459 20.3712217,13.9211297 20.3712217,14.1543773 L20.3712217,14.2811974 C20.3712217,14.514445 20.1812443,14.7035288 19.9468945,14.7035288 C19.7125446,14.7035288 19.5225673,14.514445 19.5225673,14.2811974 L19.5225673,14.1543773 Z M19.5225673,16.3638343 C19.5225673,16.1305867 19.7125446,15.9415029 19.9468945,15.9415029 C20.1812443,15.9415029 20.3712217,16.1305867 20.3712217,16.3638343 L20.3712217,16.4906544 C20.3712217,16.723902 20.1812443,16.9129858 19.9468945,16.9129858 C19.7125446,16.9129858 19.5225673,16.723902 19.5225673,16.4906544 L19.5225673,16.3638343 Z M22.017975,14.1543773 C22.017975,13.9211297 22.2079523,13.7320459 22.4423022,13.7320459 C22.676652,13.7320459 22.8666294,13.9211297 22.8666294,14.1543773 L22.8666294,14.2811974 C22.8666294,14.514445 22.676652,14.7035288 22.4423022,14.7035288 C22.2079523,14.7035288 22.017975,14.514445 22.017975,14.2811974 L22.017975,14.1543773 Z M19.5225673,9.7455389 L19.5225673,9.61877914 C19.5225673,9.38553153 19.7125446,9.19644772 19.9468945,9.19644772 C20.1812443,9.19644772 20.3712217,9.38553153 20.3712217,9.61877914 L20.3712217,9.7455389 C20.3712217,9.97878651 20.1812443,10.1678703 19.9468945,10.1678703 C19.7125446,10.1678703 19.5225673,9.97884685 19.5225673,9.7455389 Z M22.017975,11.9549356 L22.017975,11.8281758 C22.017975,11.5949282 22.2079523,11.4058444 22.4423022,11.4058444 C22.676652,11.4058444 22.8666294,11.5949282 22.8666294,11.8281758 L22.8666294,11.9549356 C22.8666294,12.1881832 22.676652,12.377267 22.4423022,12.377267 C22.2079523,12.377267 22.017975,12.1882435 22.017975,11.9549356 Z M19.5225673,11.8281758 C19.5225673,11.5949282 19.7125446,11.4058444 19.9468945,11.4058444 C20.1812443,11.4058444 20.3712217,11.5949282 20.3712217,11.8281758 L20.3712217,11.9549356 C20.3712217,12.1881832 20.1812443,12.377267 19.9468945,12.377267 C19.7125446,12.377267 19.5225673,12.1881832 19.5225673,11.9549356 L19.5225673,11.8281758 Z M25.2486811,13.0546866 C25.2486811,14.5364062 24.7618565,15.9328752 23.8407634,17.0930197 C23.7570497,17.1984818 23.6329037,17.2535659 23.5075453,17.2535659 C23.4154057,17.2535659 23.3226599,17.2238217 23.2447655,17.1625837 C23.0609106,17.0180257 23.029571,16.7523792 23.1749334,16.569389 C23.9764269,15.5598359 24.4000266,14.3444868 24.4000266,13.0547469 C24.4000266,9.92605542 21.8426672,7.3806036 18.6991906,7.3806036 C18.0269957,7.3806036 17.3689855,7.49590008 16.7433453,7.72323505 C16.5232407,7.80323669 16.2796163,7.6904742 16.1992366,7.47134453 C16.1188569,7.25221485 16.2321523,7.00979661 16.4523175,6.92973464 C17.1714309,6.66843216 17.9274001,6.53594076 18.69913,6.53594076 C22.3105789,6.53594076 25.2486811,9.46022386 25.2486811,13.0546866 Z M17.0269778,11.8281758 C17.0269778,11.5949282 17.2169551,11.4058444 17.451305,11.4058444 C17.6856548,11.4058444 17.8756322,11.5949282 17.8756322,11.8281758 L17.8756322,11.9549356 C17.8756322,12.1881832 17.6856548,12.377267 17.451305,12.377267 C17.2169551,12.377267 17.0269778,12.1881832 17.0269778,11.9549356 L17.0269778,11.8281758 Z M6.16741407,16.4011805 L6.16741407,14.8027164 C6.16741407,14.5694687 6.35739142,14.3803849 6.59174127,14.3803849 L8.58116906,14.3803849 C8.81551892,14.3803849 9.00549627,14.5694687 9.00549627,14.8027164 L9.00549627,17.0174223 C9.00549627,17.2506699 8.81551892,17.4397538 8.58116906,17.4397538 C8.34681921,17.4397538 8.15684186,17.2506699 8.15684186,17.0174223 L8.15684186,15.2250478 L7.01606848,15.2250478 L7.01606848,16.4011805 C7.01606848,16.6344281 6.82609113,16.8235119 6.59174127,16.8235119 C6.35739142,16.8235119 6.16741407,16.6344281 6.16741407,16.4011805 Z M5.028338,3.23409337 C5.028338,3.00084575 4.83836064,2.81176194 4.60401079,2.81176194 L2.61452238,2.81176194 C2.38017253,2.81176194 2.19019518,3.00084575 2.19019518,3.23409337 L2.19019518,6.77208436 C2.19019518,7.00533197 2.38017253,7.19441578 2.61452238,7.19441578 L4.60401079,7.19441578 C4.83836064,7.19441578 5.028338,7.00533197 5.028338,6.77208436 L5.028338,3.23409337 Z M4.17968359,6.34981327 L3.03884959,6.34981327 L3.03884959,3.65642479 L4.17968359,3.65642479 L4.17968359,6.34981327 Z M22.7347242,17.9462498 C22.639978,17.8660068 22.5148015,17.831074 22.3921103,17.8507426 L21.4990228,17.9937922 C20.8681695,18.0947898 20.3183626,18.4508755 19.937438,18.9533896 C19.4557661,17.6985826 18.4022222,16.7219713 16.8136018,16.7219713 L12.4818878,16.7219713 C11.0666354,16.7219713 9.90967693,17.7921592 9.37563083,19.0781583 C8.96033573,18.5186295 8.33790834,18.1051067 7.64328471,17.9938526 L6.75019718,17.8508029 C6.62732414,17.831074 6.50220823,17.8660068 6.40758327,17.9463101 C6.3129583,18.0265531 6.25846256,18.1440819 6.25846256,18.267825 L6.25846256,18.6374857 C6.25846256,18.6945607 6.27004063,18.7510325 6.29259059,18.8034619 C6.53870037,19.3765053 6.66878697,20.0017972 6.66878697,20.6119454 C6.66878697,21.2220936 6.53870037,21.8474458 6.29259059,22.4204892 C6.27004063,22.472979 6.25846256,22.5294507 6.25846256,22.5864655 L6.25846256,22.9561261 C6.25846256,23.0798692 6.3129583,23.197398 6.40764388,23.277641 C6.50226885,23.357884 6.62762723,23.3926358 6.75019718,23.3731482 L7.64328471,23.2300382 C8.33790834,23.1187237 8.96039635,22.7052009 9.37557021,22.1456721 C9.90973754,23.4316713 11.0666354,24.5019195 12.4818878,24.5019195 L16.8135412,24.5019195 C18.2051525,24.5019195 19.3471383,23.4669661 19.8927018,22.2096855 C20.2746569,22.7441761 20.8429523,23.124938 21.4989622,23.2300382 L22.3920497,23.3731482 C22.5144378,23.3926962 22.639978,23.357884 22.734603,23.277641 C22.8292886,23.197398 22.8837843,23.0798692 22.8837843,22.9561261 L22.8837843,22.5864655 C22.8837843,22.5293904 22.8722062,22.4729186 22.8496563,22.4204892 C22.6034253,21.8472648 22.4733387,21.2218523 22.4733387,20.6119454 C22.4733387,20.0020385 22.6034253,19.3766863 22.8496563,18.8034619 C22.8722062,18.7509722 22.8837843,18.6945004 22.8837843,18.6374857 L22.8837843,18.267825 C22.8838449,18.1440216 22.8292886,18.0264928 22.7347242,17.9462498 Z M8.83715961,21.0342165 L8.9972522,21.0342165 C8.81030576,21.7039738 8.20412403,22.2846192 7.50840927,22.3960543 L7.19349787,22.4464928 C7.40602518,21.8555908 7.51744138,21.2275839 7.51744138,20.6118851 C7.51744138,19.9961862 7.40602518,19.3681794 7.19349787,18.7773377 L7.50840927,18.8277761 C8.20412403,18.9392113 8.81030576,19.5198567 8.9972522,20.1895536 L8.83715961,20.1895536 C8.60280975,20.1895536 8.4128324,20.3786375 8.4128324,20.6118851 C8.4128324,20.8451327 8.60280975,21.0342165 8.83715961,21.0342165 Z M17.5931515,19.9465321 C18.1598102,20.037273 18.7457454,20.2889825 19.1853484,20.6190044 C18.6984632,21.0196159 18.0887657,21.3267112 17.5930909,21.4061095 C17.3617719,21.443154 17.2043465,21.6599307 17.2415661,21.8901616 C17.2787856,22.1204529 17.4967686,22.2769569 17.7279057,22.240033 C18.2007274,22.164315 18.7203464,21.951641 19.2004423,21.650398 C19.0665368,22.024463 18.8658906,22.384591 18.6119611,22.6950046 C18.1043445,23.3154095 17.4656108,23.6570756 16.8134805,23.6570756 L12.4818878,23.6570756 C11.8298181,23.6570756 11.1911451,23.3154095 10.6834679,22.6949443 C10.4416014,22.3993123 10.2480476,22.0586115 10.1145057,21.7036721 C10.497067,21.9571313 10.9364275,22.1634704 11.4140987,22.2399727 C11.645357,22.2769569 11.8632188,22.1203926 11.9004383,21.8901013 C11.9376579,21.65981 11.7803537,21.4430936 11.5489135,21.4060491 C10.9965608,21.3175405 10.4874893,20.9721941 10.0952898,20.619849 C10.5266487,20.264608 11.0311131,20.0293694 11.5489135,19.9464114 C11.7802325,19.9093669 11.9376579,19.6926506 11.9004383,19.4623593 C11.8632188,19.2320076 11.645357,19.0754434 11.4140987,19.1124879 C10.9529763,19.1863355 10.5019771,19.3523118 10.0865608,19.596721 C10.2204057,19.2142697 10.4240827,18.8455141 10.6834073,18.5286448 C11.1910845,17.9081796 11.8297575,17.5665135 12.4818878,17.5665135 L16.8135412,17.5665135 C18.2039402,17.5665135 18.9996143,18.5401081 19.2772455,19.668457 C18.8064848,19.3963549 18.2651645,19.1984625 17.7279057,19.1124879 C17.4974354,19.0755037 17.2788463,19.232068 17.2416267,19.4623593 C17.2044071,19.6926506 17.3617719,19.9094876 17.5931515,19.9465321 Z M21.948749,22.4464928 L21.6338376,22.3960543 C20.964613,22.2888425 20.4331128,21.7337783 20.2777485,21.0342165 L20.304966,21.0342165 C20.5393159,21.0342165 20.7292932,20.8451327 20.7292932,20.6118851 C20.7292932,20.3786375 20.5392553,20.1895536 20.304966,20.1895536 L20.2777485,20.1895536 C20.4331128,19.4899918 20.9645524,18.9349277 21.6338376,18.8277761 L21.948749,18.7773377 C21.7361005,19.3683604 21.6246843,19.9963069 21.6246843,20.6118851 C21.6246843,21.2274633 21.7361005,21.8554701 21.948749,22.4464928 Z M17.0269778,14.1543773 C17.0269778,13.9211297 17.2169551,13.7320459 17.451305,13.7320459 C17.6856548,13.7320459 17.8756322,13.9211297 17.8756322,14.1543773 L17.8756322,14.2811974 C17.8756322,14.514445 17.6856548,14.7035288 17.451305,14.7035288 C17.2169551,14.7035288 17.0269778,14.514445 17.0269778,14.2811974 L17.0269778,14.1543773 Z M4.60401079,14.3803849 L2.61452238,14.3803849 C2.38017253,14.3803849 2.19019518,14.5694687 2.19019518,14.8027164 L2.19019518,18.340647 C2.19019518,18.5738946 2.38017253,18.7629784 2.61452238,18.7629784 L4.60401079,18.7629784 C4.83836064,18.7629784 5.028338,18.5738946 5.028338,18.340647 L5.028338,14.8027164 C5.028338,14.5694084 4.83836064,14.3803849 4.60401079,14.3803849 Z M4.17968359,17.9182553 L3.03884959,17.9182553 L3.03884959,15.2249874 L4.17968359,15.2249874 L4.17968359,17.9182553 Z M17.0269778,9.7455389 L17.0269778,9.61877914 C17.0269778,9.38553153 17.2169551,9.19644772 17.451305,9.19644772 C17.6856548,9.19644772 17.8756322,9.38553153 17.8756322,9.61877914 L17.8756322,9.7455389 C17.8756322,9.97878651 17.6856548,10.1678703 17.451305,10.1678703 C17.2169551,10.1678703 17.0269778,9.97884685 17.0269778,9.7455389 Z"></path>
                    </g>
                </g>
            </g>
        </g>
    </g>
</svg>