<?xml version="1.0" encoding="UTF-8"?>
<svg width="26px" height="24px" viewBox="0 0 26 24" version="1.1" xmlns="http://www.w3.org/2000/svg" xmlns:xlink="http://www.w3.org/1999/xlink">
    <!-- Generator: sketchtool 50.2 (55047) - http://www.bohemiancoding.com/sketch -->
    <title>2D89061E-F374-4C2C-9295-3F60211D95C4</title>
    <desc>Created with sketchtool.</desc>
    <defs>
        <rect id="path-1" x="0" y="0" width="26" height="26"></rect>
    </defs>
    <g id="Anasayfa-v2" stroke="none" stroke-width="1" fill="none" fill-rule="evenodd">
        <g transform="translate(-221.000000, -410.000000)" id="bebekoyuncak">
            <g transform="translate(221.000000, 409.000000)">
                <mask id="mask-2" fill="white">
                    <use xlink:href="#path-1"></use>
                </mask>
                <g id="mask"></g>
                <g id="-g--bebek_oyuncak" mask="url(#mask-2)" fill="#000000" fill-rule="nonzero">
                    <g transform="translate(6.237098, 14.655258) rotate(-45.000000) translate(-6.237098, -14.655258) translate(-3.762902, 4.655258)" id="Shape">
                        <path d="M19.0619355,0.440590138 C18.7790713,0.15671203 18.4028584,0.000344002016 18.0028037,0.000344002016 C17.6026348,0.000344002016 17.2265742,0.15671203 16.9435195,0.440590138 L16.5574805,0.828012853 C15.9167988,1.47099084 15.5050898,1.55966692 15.1556514,1.55966692 C15.1555752,1.55966692 15.1555752,1.55966692 15.155499,1.55966692 C15.0279873,1.55966692 14.900666,1.54690062 14.7658037,1.5334081 C14.6210391,1.51892179 14.4715137,1.50397681 14.3120098,1.50397681 C13.8103418,1.50397681 13.3741055,1.66798933 12.9342891,2.02785366 C12.6631553,1.82921161 12.3367969,1.72176831 11.9932236,1.72176831 C11.5654043,1.72176831 11.1640547,1.88807418 10.8631758,2.19006972 C10.5626396,2.49172127 10.3969277,2.89389785 10.3965469,3.32263903 C10.1839512,3.26618448 9.96267187,3.23644741 9.73651758,3.23644741 C9.05413184,3.23644741 8.41409766,3.50159652 7.93436719,3.98300823 L0.745189453,11.1979536 C-0.248396484,12.195139 -0.248396484,13.8176436 0.745189453,14.814829 L4.73910937,18.8231023 C5.21876367,19.3044758 5.85872168,19.5695867 6.54106934,19.5695867 C7.22345508,19.5695867 7.86348926,19.3044758 8.34310547,18.8231023 L15.5322832,11.6081569 C16.0119375,11.126707 16.2761777,10.4844552 16.2761777,9.79962366 C16.2761777,9.57265877 16.2465088,9.35047169 16.1902559,9.13715222 C16.6174658,9.13669355 17.018168,8.97046413 17.318666,8.66888903 C17.6196211,8.3669317 17.7853711,7.96414357 17.7853711,7.5347526 C17.7854473,7.18971858 17.6781592,6.86196111 17.4800361,6.58974084 C18.0811084,5.84551159 18.0220752,5.24534274 17.9730205,4.75238785 C17.9200811,4.21914651 17.8743018,3.75864247 18.6758965,2.95417465 L19.0620117,2.56675193 C19.6459834,1.98053427 19.6459834,1.0268078 19.0619355,0.440590138 Z M15.2107236,10.7088592 L13.6128281,9.10519825 C13.454124,8.94600176 13.1969678,8.94600176 13.0382637,9.10516003 C12.8795596,9.26435652 12.8795596,9.52254914 13.0382637,9.68174563 L14.6704746,11.319845 L13.4477256,12.5469384 L11.8155146,10.908839 C11.6568105,10.7496426 11.3996543,10.7496426 11.2409502,10.908839 C11.0822461,11.0680355 11.0822461,11.3262282 11.2409502,11.4854246 L12.8732373,13.1235622 L11.650374,14.3506939 L10.0183154,12.7125945 C9.85961133,12.553398 9.60245508,12.553398 9.44375098,12.7125945 C9.28504687,12.871791 9.28504687,13.1299836 9.44375098,13.2891801 L11.0759619,14.9272413 L9.85321289,16.1543347 L8.22092578,14.5162353 C8.06222168,14.3570388 7.80506543,14.3570388 7.64636133,14.5162735 C7.48777148,14.67547 7.48777148,14.9336626 7.64636133,15.0928591 L9.27864844,16.7309585 L8.0559375,17.9580519 L6.2015332,16.0968863 C6.0428291,15.9376899 5.78567285,15.9376899 5.62696875,16.0968863 C5.46826465,16.2560828 5.46826465,16.5142755 5.62696875,16.6734719 L7.44720996,18.5003138 C7.17782812,18.6655112 6.86678027,18.7541108 6.54103125,18.7541108 C6.07569727,18.7540726 5.63980371,18.5737773 5.31363574,18.2464403 L1.31971582,14.2382052 C0.642890625,13.5589541 0.642890625,12.4537521 1.31971582,11.7745392 L8.22164941,4.84786752 L9.27887695,5.90876974 C9.35820996,5.9883871 9.46218457,6.02817666 9.56612109,6.02817666 C9.67017187,6.02817666 9.77407031,5.98834887 9.85344141,5.90876974 C10.0120312,5.74949681 10.0120312,5.49138063 9.85336523,5.33218414 L8.83041504,4.30568212 C9.0997207,4.14048471 9.41084473,4.05188508 9.73651758,4.05188508 C10.2018135,4.05188508 10.6376689,4.23218036 10.963875,4.55951739 L14.9577949,8.56771421 C15.2839629,8.89508947 15.4637285,9.33258359 15.4637285,9.79958543 C15.4636143,10.1263873 15.375293,10.4385883 15.2107236,10.7088592 Z M16.7441777,8.09222698 C16.5966709,8.24022429 16.3994238,8.32171455 16.1885801,8.32171455 C15.9778125,8.32171455 15.7806416,8.24026252 15.6332109,8.09230343 L11.437626,3.88171875 C11.2901953,3.73375966 11.208958,3.53580561 11.208958,3.32428259 C11.208958,3.11275958 11.2901953,2.91469086 11.4377402,2.76669355 C11.5851709,2.61873446 11.782418,2.5372442 11.9932617,2.5372442 C12.2040674,2.5372442 12.4014287,2.61873446 12.5488594,2.76669355 L12.6464355,2.86458123 C12.6467783,2.86496346 12.6470068,2.86530746 12.6473877,2.86565146 L16.6457256,6.87828209 C16.6460684,6.87858787 16.646373,6.87889365 16.6467539,6.87916121 L16.7442539,6.97708711 C16.8916846,7.1250462 16.9728457,7.3230767 16.9728457,7.53463794 C16.9728457,7.7462374 16.8916846,7.94422967 16.7441777,8.09222698 Z M18.4874092,1.99008989 L18.1012939,2.37755082 C17.0275371,3.45519447 17.1035186,4.2192994 17.1644941,4.83326655 C17.205208,5.24316406 17.2367051,5.55987525 16.9142314,5.99457913 L13.5283535,2.59656544 C13.8481992,2.35874538 14.0933965,2.3194527 14.3118955,2.3194527 C14.4309141,2.3194527 14.5543887,2.33179856 14.6850615,2.34490885 C14.8336729,2.35977739 14.9874258,2.37514281 15.1552705,2.37514281 C15.1553467,2.37514281 15.1553467,2.37514281 15.1554229,2.37514281 C15.8535381,2.37514281 16.4631797,2.07578461 17.1318926,1.40463668 L17.5179316,1.01721396 C17.6474619,0.887257644 17.8195342,0.815743448 18.0026895,0.815743448 C18.1857686,0.815743448 18.3578408,0.887257644 18.4873711,1.01713752 C18.7546963,1.28542087 18.7546963,1.7219212 18.4874092,1.99008989 Z"></path>
                        <path d="M5.36924121,15.2618788 C5.21053711,15.1026823 4.95338086,15.1026823 4.79467676,15.2618788 C4.63597266,15.4210753 4.63597266,15.6792679 4.79467676,15.8385026 L4.80149414,15.8453826 C4.88082715,15.925 4.98480176,15.9647896 5.08881445,15.9647896 C5.19278906,15.9647896 5.2966875,15.925 5.37605859,15.8453826 C5.5347627,15.6861862 5.5347627,15.4279935 5.37605859,15.2687588 L5.36924121,15.2618788 Z"></path>
                        <path d="M10.6765166,6.15840054 C10.516708,6.00035072 10.2594375,6.0021854 10.1019902,6.16260501 C9.9444668,6.32298639 9.94640918,6.58114079 10.1062178,6.73919061 L10.1129971,6.7459942 C10.1921777,6.82427377 10.2951621,6.86329889 10.3981846,6.86329889 C10.5031494,6.86329889 10.6080762,6.82274488 10.6875615,6.74178973 C10.845085,6.58140835 10.8431426,6.32325395 10.683334,6.16520413 L10.6765166,6.15840054 Z"></path>
                    </g>
                </g>
                <g id="abc" mask="url(#mask-2)" fill="#000000" fill-rule="nonzero">
                    <g transform="translate(10.833333, 10.111111)" id="Shape">
                        <path d="M8.95916667,5.34252604 L7.73886502,2.00681858 C7.69578559,1.88378689 7.62666667,1.78580729 7.53255208,1.71479818 C7.3423763,1.57444444 7.08669271,1.58118707 6.90517795,1.71575738 C6.81250217,1.7855816 6.74341146,1.8835612 6.70103733,2.00391276 L5.49080729,5.3280816 C5.42340929,5.48287977 5.45373698,5.60492405 5.4915408,5.68027778 C5.54161675,5.78017578 5.6229796,5.85121311 5.72457031,5.884898 L5.85265191,5.90681858 C5.91790582,5.90681858 5.9809592,5.89020182 6.03921658,5.85843533 C6.13406467,5.80762587 6.2060612,5.72578342 6.25035373,5.61431858 L6.60858724,4.63282986 L7.83515191,4.63282986 L8.19121311,5.6215408 C8.23166884,5.722398 8.29954644,5.80282986 8.4170204,5.86901476 C8.46997396,5.89116102 8.52487413,5.90247396 8.58073351,5.90247396 L8.71217231,5.8810612 C8.81737413,5.84616319 8.90042969,5.77247396 8.94641493,5.67330946 C8.99287977,5.57290365 8.99815538,5.4609592 8.95916667,5.34252604 Z M6.89169271,3.85666667 L7.22103733,2.95628689 L7.54820964,3.85666667 L6.89169271,3.85666667 Z"></path>
                        <path d="M5.18628906,10.6821463 C5.12633898,10.5957335 5.05580946,10.517474 4.97515191,10.4481576 C5.01825955,10.3966428 5.05555556,10.3419965 5.08735026,10.2842187 C5.18580946,10.1173741 5.23588542,9.92671875 5.23588542,9.71752821 C5.23588542,9.40192274 5.13477431,9.12818359 4.93472439,8.90358941 C4.71156901,8.65490234 4.4149783,8.52899306 4.05240017,8.52899306 L2.95871311,8.52899306 C2.73482422,8.52899306 2.54608724,8.6103559 2.41199653,8.76563368 C2.29669488,8.90068359 2.23818359,9.0667947 2.23818359,9.2593967 L2.23818359,11.9335373 C2.23818359,12.1230078 2.29669488,12.2876519 2.41343533,12.4243945 C2.54631293,12.5777539 2.73507812,12.6593707 2.95871311,12.6593707 L4.1260612,12.6593707 C4.52184462,12.6593707 4.84371311,12.5233615 5.08275174,12.2549262 C5.29532769,12.0175521 5.40340712,11.7255317 5.40340712,11.3870464 C5.40343533,11.1207834 5.32926649,10.8824501 5.18628906,10.6821463 Z M3.00613715,9.31113715 L3.01287977,9.31088325 L4.02255208,9.31088325 L4.02255208,9.31062934 C4.19780382,9.31062934 4.27654297,9.37658854 4.32371311,9.43052951 C4.39257812,9.50540365 4.42459852,9.59520182 4.42459852,9.71267578 C4.42459852,9.82487413 4.39184462,9.9136849 4.32013021,9.99408854 C4.24742839,10.0761849 4.1530599,10.114694 4.0225803,10.114694 L3.03866536,10.114694 L3.00613715,9.31113715 Z M4.47247396,11.7327539 C4.3860612,11.8319466 4.27459635,11.877678 4.12123698,11.877678 L3.04921658,11.9135352 L3.04921658,10.8911111 L4.0964388,10.8911111 C4.25580729,10.8911111 4.37328125,10.9383095 4.46573134,11.0399002 C4.5509592,11.1337891 4.59237413,11.2471723 4.59237413,11.3868207 C4.59237413,11.5281055 4.55361111,11.6410091 4.47247396,11.7327539 Z"></path>
                        <path d="M12.3235091,11.0822461 C12.2633333,10.9890907 12.172322,10.9274479 12.0647222,10.9045681 L11.9660091,10.8930013 C11.8964388,10.8930013 11.8302257,10.9098438 11.7625738,10.9469141 C11.6600239,11.0066102 11.5909332,11.1077214 11.568533,11.2254492 C11.5100217,11.4977214 11.4024219,11.6948937 11.2507552,11.8097157 C11.115931,11.9105729 10.9300998,11.9613824 10.6977756,11.9613824 C10.3917904,11.9613824 10.1563628,11.8602713 9.9791645,11.651786 C9.77742188,11.4144119 9.67509766,11.0586046 9.67509766,10.5942101 C9.67509766,10.141862 9.77812717,9.78845269 9.97843099,9.54673394 C10.1633312,9.33128038 10.398533,9.22655816 10.6977756,9.22655816 C10.9286328,9.22655816 11.1185829,9.27736762 11.2620681,9.37774523 C11.4144683,9.48416016 11.5095421,9.64352865 11.5516905,9.8572895 C11.5788867,10.0197895 11.666033,10.1083746 11.7283811,10.1500434 C11.793635,10.1962543 11.869694,10.2208268 11.9484049,10.2208268 L12.040855,10.2095139 C12.1446181,10.1851953 12.2303255,10.128151 12.2926736,10.0388325 C12.3526237,9.94830078 12.3766884,9.84335286 12.359592,9.72489149 C12.2900217,9.35416016 12.1251237,9.05249132 11.8670421,8.82572483 C11.5711849,8.57320095 11.1780534,8.44486545 10.6980013,8.44486545 C10.15199,8.44486545 9.70421224,8.64948568 9.36789931,9.05153212 C9.03375868,9.44440972 8.86403646,9.96370443 8.86403646,10.5942101 C8.86403646,11.2384266 9.03401259,11.7615582 9.3669401,12.1462543 C9.70156033,12.5420378 10.1491124,12.7430469 10.6977474,12.7430469 C11.1785048,12.7430469 11.5723698,12.6043859 11.8675217,12.332819 C12.11477,12.1081966 12.2861567,11.8031988 12.377168,11.4232986 C12.4135612,11.2635352 12.367322,11.1487131 12.3235091,11.0822461 Z"></path>
                        <path d="M13.7222222,6.86111111 L11.0138889,6.86111111 L11.0138889,0.722222222 C11.0138889,0.323307292 10.6905816,0 10.2916667,0 L4.15277778,0 C3.75386285,0 3.43055556,0.323307292 3.43055556,0.722222222 L3.43055556,6.86111111 L0.722222222,6.86111111 C0.323307292,6.86111111 0,7.1844184 0,7.58333333 L0,13.7222222 C0,14.1211372 0.323307292,14.4444444 0.722222222,14.4444444 L13.7222222,14.4444444 C14.1211372,14.4444444 14.4444444,14.1211372 14.4444444,13.7222222 L14.4444444,7.58333333 C14.4444444,7.1844184 14.1211372,6.86111111 13.7222222,6.86111111 Z M6.86111111,13.7222222 L0.722222222,13.7222222 L0.722222222,7.58333333 L4.15277778,7.58333333 L6.86111111,7.58333333 L6.86111111,13.7222222 Z M4.15277778,6.86111111 L4.15277778,0.722222222 L10.2916667,0.722222222 L10.2916667,6.86111111 L7.58333333,6.86111111 L6.86111111,6.86111111 L4.15277778,6.86111111 Z M13.7222222,13.7222222 L7.58333333,13.7222222 L7.58333333,7.58333333 L10.2916667,7.58333333 L13.7222222,7.58333333 L13.7222222,13.7222222 Z"></path>
                    </g>
                </g>
            </g>
        </g>
    </g>
</svg>