<?xml version="1.0" encoding="UTF-8"?>
<svg width="26px" height="26px" viewBox="0 0 102 102" version="1.1" xmlns="http://www.w3.org/2000/svg" xmlns:xlink="http://www.w3.org/1999/xlink">
    <!-- Generator: Sketch 55.2 (78181) - https://sketchapp.com -->
    <title>elektronik_light</title>
    <desc>Created with Sketch.</desc>
    <g id="elektronik_light" stroke="none" stroke-width="1" fill="none" fill-rule="evenodd">
        <path d="M83.5862069,30.6487696 L91.3448276,30.6487696 C93.9158083,30.6487696 96,32.6920338 96,35.212528 L96,74.7651007 C96,77.2855948 93.9158083,79.3288591 91.3448276,79.3288591 L69.6206897,79.3288591 C67.0497089,79.3288591 64.9655172,77.2855948 64.9655172,74.7651007 L64.9655172,68.6800895 L52.9180963,68.6800895 C53.6552272,69.4875043 54.1034483,70.5537337 54.1034483,71.7225951 L54.1034483,74.7651007 C54.1034483,74.8009931 54.1030256,74.8367888 54.102185,74.8724832 L57.2068966,74.8724832 C59.7778773,74.8724832 61.862069,76.9157475 61.862069,79.4362416 C61.862069,81.9567358 59.7778773,84 57.2068966,84 L32.3793103,84 C29.8083296,84 27.7241379,81.9567358 27.7241379,79.4362416 C27.7241379,76.9157475 29.8083296,74.8724832 32.3793103,74.8724832 L35.4840219,74.8724832 C35.4831813,74.8367888 35.4827586,74.8009931 35.4827586,74.7651007 L35.4827586,71.7225951 C35.4827586,70.5537337 35.9309797,69.4875043 36.6681106,68.6800895 L10.6551724,68.6800895 C8.08419168,68.6800895 6,66.6368253 6,64.1163311 L6,24.5637584 C6,22.0432642 8.08419168,20 10.6551724,20 L78.9310345,20 C81.5020152,20 83.5862069,22.0432642 83.5862069,24.5637584 L83.5862069,30.6487696 Z M82.0344828,33.6912752 L69.6206897,33.6912752 C68.7636961,33.6912752 68.0689655,34.3723632 68.0689655,35.212528 L68.0689655,67.1588367 L68.0689655,74.7651007 C68.0689655,75.6052654 68.7636961,76.2863535 69.6206897,76.2863535 L91.3448276,76.2863535 C92.2018212,76.2863535 92.8965517,75.6052654 92.8965517,74.7651007 L92.8965517,35.212528 C92.8965517,34.3723632 92.2018212,33.6912752 91.3448276,33.6912752 L82.0344828,33.6912752 Z M78.9310345,30.6487696 L80.4827586,30.6487696 L80.4827586,24.5637584 C80.4827586,23.7235937 79.7880281,23.0425056 78.9310345,23.0425056 L10.6551724,23.0425056 C9.79817884,23.0425056 9.10344828,23.7235937 9.10344828,24.5637584 L9.10344828,64.1163311 C9.10344828,64.9564958 9.79817884,65.6375839 10.6551724,65.6375839 L64.9655172,65.6375839 L64.9655172,62.5950783 L13.7586207,62.5950783 C12.0446335,62.5950783 10.6551724,61.2329021 10.6551724,59.5525727 L10.6551724,27.606264 C10.6551724,25.9259345 12.0446335,24.5637584 13.7586207,24.5637584 L75.8275862,24.5637584 C77.5415734,24.5637584 78.9310345,25.9259345 78.9310345,27.606264 L78.9310345,30.6487696 Z M75.8275862,30.6487696 L75.8275862,27.606264 L13.7586207,27.606264 L13.7586207,59.5525727 L64.9655172,59.5525727 L64.9655172,35.212528 C64.9655172,32.6920338 67.0497089,30.6487696 69.6206897,30.6487696 L75.8275862,30.6487696 Z M40.137931,70.2013423 C39.2809375,70.2013423 38.5862069,70.8824304 38.5862069,71.7225951 L38.5862069,74.7651007 C38.5870226,75.026434 38.6564964,75.2831547 38.787931,75.5105145 C39.0622357,75.9889286 39.5781247,76.2854077 40.137931,76.2863535 L49.4482759,76.2863535 C50.3052694,76.2863535 51,75.6052654 51,74.7651007 L51,71.7225951 C51,70.8824304 50.3052694,70.2013423 49.4482759,70.2013423 L40.137931,70.2013423 Z M32.3793103,77.9149888 C31.9776183,77.9206227 31.5938101,78.0787657 31.3086207,78.3561521 C31.006755,78.6381913 30.8333831,79.0274714 30.8275862,79.4362416 C30.8275862,80.2764063 31.5223168,80.9574944 32.3793103,80.9574944 L57.2068966,80.9574944 C57.6085886,80.9518605 57.9923968,80.7937175 58.2775862,80.5163311 C58.5794519,80.2342919 58.7528238,79.8450118 58.7586207,79.4362416 C58.7586207,78.5960769 58.0638901,77.9149888 57.2068966,77.9149888 L52.9241379,77.9149888 C52.0395964,78.8845185 50.7750888,79.4379455 49.4482759,79.4362416 L40.137931,79.4362416 C38.8111181,79.4379455 37.5466105,78.8845185 36.662069,77.9149888 L32.3793103,77.9149888 Z M77.348839,38.2550336 C76.5086743,38.2550336 75.8275862,37.5739455 75.8275862,36.7337808 C75.8275862,35.893616 76.5086743,35.212528 77.348839,35.212528 L83.6166782,35.212528 C84.456843,35.212528 85.137931,35.893616 85.137931,36.7337808 C85.137931,37.5739455 84.456843,38.2550336 83.6166782,38.2550336 L77.348839,38.2550336 Z M75.7971149,74.7651007 C74.9569501,74.7651007 74.2758621,74.0840126 74.2758621,73.2438479 C74.2758621,72.4036832 74.9569501,71.7225951 75.7971149,71.7225951 L85.1684024,71.7225951 C86.0085671,71.7225951 86.6896552,72.4036832 86.6896552,73.2438479 C86.6896552,74.0840126 86.0085671,74.7651007 85.1684024,74.7651007 L75.7971149,74.7651007 Z" id="Combined-Shape" fill="#000000" fill-rule="nonzero"></path>
    </g>
</svg>