<svg xmlns="http://www.w3.org/2000/svg" width="16" height="16" viewBox="0 0 16 16">
    <g fill="none" fill-rule="evenodd">
        <g>
            <g>
                <g>
                    <path d="M0 0L16 0 16 16 0 16z" transform="translate(-1067 -93) translate(1055 81) translate(12 12)"/>
                    <path fill="grey" d="M8.333 7.333c-2.025 0-3.666-1.641-3.666-3.666S6.308 0 8.333 0 12 1.642 12 3.667s-1.642 3.666-3.667 3.666z" transform="translate(-1067 -93) translate(1055 81) translate(12 12)"/>
                    <path fill="grey" d="M0 15.266c.345-4.375 3.788-6.6 7.985-6.6 4.256 0 7.753 2.103 8.013 6.6.01.18 0 .734-.668.734H.647c-.223 0-.665-.496-.646-.734z" transform="translate(-1067 -93) translate(1055 81) translate(12 12)"/>
                </g>
            </g>
        </g>
    </g>
</svg>