<?xml version="1.0" encoding="UTF-8"?>
<svg width="24px" height="26px" viewBox="0 0 24 26" version="1.1" xmlns="http://www.w3.org/2000/svg" xmlns:xlink="http://www.w3.org/1999/xlink">
    <!-- Generator: sketchtool 50.2 (55047) - http://www.bohemiancoding.com/sketch -->
    <title>CAE7BF25-FF7B-4502-8298-7AA69AD3DB60</title>
    <desc>Created with sketchtool.</desc>
    <defs>
        <rect id="path-1" x="0" y="0" width="26" height="26"></rect>
    </defs>
    <g id="Anasayfa-v2" stroke="none" stroke-width="1" fill="none" fill-rule="evenodd">
        <g transform="translate(-222.000000, -325.000000)" id="deterjantemizlik">
            <g transform="translate(221.000000, 325.000000)">
                <mask id="mask-2" fill="white">
                    <use xlink:href="#path-1"></use>
                </mask>
                <g id="mask"></g>
                <g id="-g--deterjan_temizlik" mask="url(#mask-2)" fill="#000000" fill-rule="nonzero" stroke="#000000" stroke-width="0.5">
                    <g transform="translate(2.166667, 0.722222)" id="XMLID_452_">
                        <path d="M10.2289754,17.8562843 C10.2792942,17.6524556 10.3059927,17.4396017 10.3059927,17.2206529 C10.3059927,15.7445651 9.09295537,14.5436871 7.60192168,14.5436871 C6.11088798,14.5436871 4.89790984,15.7445651 4.89790984,17.2206529 C4.89790984,17.4073689 4.91726776,17.5895723 4.95420765,17.7655635 L3.46329235,17.7655635 C1.58557377,17.7655635 0.0580145719,19.2778693 0.0580145719,21.1367072 C0.0580145719,22.9955452 1.58563297,24.5077924 3.46329235,24.5077924 L9.4451867,24.5077924 C11.3228461,24.5077924 12.8504053,22.9954866 12.8504053,21.1367072 C12.8504645,19.5631591 11.7348679,18.211197 10.2289754,17.8562843 Z M7.60192168,15.3642177 C8.63594262,15.3642177 9.47721311,16.1970554 9.47721311,17.2207115 C9.47721311,18.2443675 8.63594262,19.0772053 7.60192168,19.0772053 C6.56790073,19.0772053 5.72668944,18.2443675 5.72668944,17.2207115 C5.72668944,16.1970554 6.56790073,15.3642177 7.60192168,15.3642177 Z M9.4451867,23.6874375 L3.46329235,23.6874375 C2.35266849,23.6874375 1.40389344,22.9880438 1.04260474,22.0109788 C1.46930783,22.196171 1.93247723,22.2941002 2.40316485,22.2941002 L10.5051958,22.2941002 C10.7340574,22.2941002 10.9195856,22.1104317 10.9195856,21.8838642 C10.9195856,21.6572967 10.7340574,21.4736282 10.5051958,21.4736282 L2.40322404,21.4736282 C1.86037341,21.4736282 1.33042805,21.3009775 0.891352459,20.984158 C0.971388889,19.6484882 2.09438525,18.5860941 3.46329235,18.5860941 L5.27672131,18.5860941 C5.74871129,19.370817 6.61431239,19.8976773 7.60186248,19.8976773 C8.57248179,19.8976773 9.4251776,19.3888674 9.90225865,18.6265317 C11.1097313,18.8429019 12.0216257,19.8993182 12.0216257,21.1368244 C12.0216849,22.5431721 10.8658333,23.6874375 9.4451867,23.6874375 Z M21.6196038,14.8395845 C21.5749089,13.0985428 21.2038525,12.4231771 20.4645219,11.0775444 C20.3711658,10.9075895 20.2711202,10.7256205 20.1643852,10.528004 L16.8759654,4.4427974 C16.8120902,4.32453222 16.7502277,4.20544657 16.688898,4.0874158 C16.2729098,3.2865179 15.8081421,2.39185176 14.8397723,2.18474118 L14.8397723,0.410236012 C14.8397723,0.183668523 14.6542441,0 14.4253825,0 L11.0571038,0 C10.8282423,0 10.642714,0.183668523 10.642714,0.410236012 L10.642714,2.17952532 C9.57719945,2.37550093 8.76493625,3.28810024 8.56235883,4.57295943 L8.22776867,6.69458287 C8.19242714,6.91845452 8.34717213,7.12820233 8.57325137,7.1631896 C8.79962659,7.1984699 9.01132058,7.04498303 9.04660291,6.82116998 L9.38119308,4.69948793 C9.51770492,3.83394855 10.0954827,2.9606733 11.0787113,2.9606733 L14.4034791,2.9606733 C15.1345811,2.9606733 15.4681056,3.53137019 15.9518169,4.46254733 C16.0151594,4.58450464 16.0790938,4.70757544 16.1451594,4.82976717 L19.4335792,10.9149737 C19.5413206,11.1143484 19.6421949,11.2979584 19.736439,11.4695542 C20.4535109,12.7747494 20.750806,13.3156749 20.7909426,14.855232 L20.7909426,21.4042983 C20.7909426,22.6631954 19.7562705,23.6874375 18.4845674,23.6874375 L12.7758743,23.6874375 C12.5470128,23.6874375 12.3614845,23.8711061 12.3614845,24.0976736 C12.3614845,24.3242411 12.5470128,24.5079096 12.7758743,24.5079096 L18.4845674,24.5079096 C20.2132832,24.5079096 21.6197222,23.1156272 21.6197222,21.4042983 L21.6197222,14.8500162 C21.6197222,14.8464999 21.619663,14.8430422 21.6196038,14.8395845 Z M14.0109335,2.14025988 L11.4714936,2.14025988 L11.4714936,0.820472023 L14.0109335,0.820472023 L14.0109335,2.14025988 Z M8.23753643,10.8258939 C9.09129781,10.8258939 9.78587432,10.1382798 9.78587432,9.29307637 C9.78587432,8.44781437 9.09129781,7.76020021 8.23753643,7.76020021 C7.38371585,7.76020021 6.68913934,8.44781437 6.68913934,9.29307637 C6.68913934,10.1382212 7.38371585,10.8258939 8.23753643,10.8258939 Z M8.23753643,8.58061363 C8.63428506,8.58061363 8.95709472,8.90018748 8.95709472,9.29301777 C8.95709472,9.68578945 8.63428506,10.0053633 8.23753643,10.0053633 C7.8407286,10.0053633 7.51791894,9.68578945 7.51791894,9.29301777 C7.51791894,8.90018748 7.8407286,8.58061363 8.23753643,8.58061363 Z M8.24718579,11.8912182 L8.0113388,13.3872904 C7.97943078,13.5897125 7.80307832,13.73435 7.60245446,13.73435 C7.58120219,13.73435 7.55965392,13.7327677 7.53804645,13.7293686 C7.31190801,13.6944399 7.15716302,13.4846335 7.19250455,13.2608205 L7.42835155,11.7647483 C7.46363388,11.5408181 7.67591985,11.3870968 7.9016439,11.4226701 C8.12778233,11.4575988 8.28252732,11.6674052 8.24718579,11.8912182 Z M3.46358834,14.1446447 C4.51661202,14.1446447 5.37333333,13.2964524 5.37333333,12.2539255 C5.37333333,11.21134 4.51661202,10.3630891 3.46358834,10.3630891 C2.41038707,10.3630891 1.55348816,11.21134 1.55348816,12.2539255 C1.55354736,13.296511 2.41038707,14.1446447 3.46358834,14.1446447 Z M3.46358834,11.1836197 C4.05959927,11.1836197 4.54455373,11.6637717 4.54455373,12.2539841 C4.54455373,12.8440793 4.05965847,13.3242312 3.46358834,13.3242312 C2.86739982,13.3242312 2.38226776,12.8441379 2.38226776,12.2539841 C2.38232696,11.6637717 2.86739982,11.1836197 3.46358834,11.1836197 Z M7.18753188,16.3766802 C7.18753188,16.1501127 7.37306011,15.9664442 7.60192168,15.9664442 C8.30052368,15.9664442 8.86882969,16.5291122 8.86882969,17.2205943 C8.86882969,17.4471618 8.68330146,17.6308303 8.45443989,17.6308303 C8.22557832,17.6308303 8.04005009,17.4471618 8.04005009,17.2205943 C8.04005009,16.9814267 7.84351093,16.7869162 7.60192168,16.7869162 C7.37300091,16.7869162 7.18753188,16.6033063 7.18753188,16.3766802 Z M4.05817851,5.97110236 C4.91193989,5.97110236 5.60645719,5.2834882 5.60645719,4.43828481 C5.60645719,3.59302281 4.91193989,2.90540864 4.05817851,2.90540864 C3.20429872,2.90540864 2.50960383,3.59302281 2.50960383,4.43828481 C2.50960383,5.28342959 3.20429872,5.97110236 4.05817851,5.97110236 Z M4.05817851,3.72582206 C4.45492714,3.72582206 4.7776776,4.04539592 4.7776776,4.4382262 C4.7776776,4.83099788 4.45492714,5.15057173 4.05817851,5.15057173 C3.66125228,5.15057173 3.33838342,4.83099788 3.33838342,4.4382262 C3.33838342,4.04539592 3.66125228,3.72582206 4.05817851,3.72582206 Z M16.8049863,14.6729114 C16.9467668,14.7156346 17.0915665,14.736791 17.2355965,14.736791 C17.4740483,14.736791 17.7103689,14.6788305 17.9267395,14.5646091 C18.6430419,14.1863129 18.9150592,13.301551 18.5331102,12.5923702 C18.533051,12.5921944 18.5329326,12.5920186 18.5328142,12.5918427 L14.9300501,5.9248043 C14.5479235,5.21556484 13.6539663,4.9462742 12.9376047,5.32468762 C12.2213024,5.70304243 11.9494035,6.5878629 12.3317077,7.29745399 L15.9343534,13.9643752 C16.119408,14.3079186 16.428602,14.5595691 16.8049863,14.6729114 Z M13.3276047,6.04857836 C13.4238616,5.9977677 13.5273406,5.97368099 13.6295173,5.97368099 C13.859918,5.97368099 14.0831557,6.09628295 14.1990665,6.31142243 L17.8017714,12.9783437 C17.9687705,13.2884821 17.8498406,13.6753347 17.5366211,13.8407184 C17.2233424,14.0061021 16.8325729,13.8883644 16.6652778,13.5778743 L13.0626321,6.91095306 C12.8955738,6.60081464 13.0145036,6.21396208 13.3276047,6.04857836 Z"></path>
                    </g>
                </g>
            </g>
        </g>
    </g>
</svg>