<?xml version="1.0" encoding="UTF-8"?>
<svg width="26px" height="26px" viewBox="0 0 26 26" version="1.1" xmlns="http://www.w3.org/2000/svg" xmlns:xlink="http://www.w3.org/1999/xlink">
    <!-- Generator: sketchtool 50.2 (55047) - http://www.bohemiancoding.com/sketch -->
    <title>F7146236-CF98-496A-AE0C-D932B1783E7A</title>
    <desc>Created with sketchtool.</desc>
    <defs>
        <rect id="path-1" x="0" y="0" width="26" height="26"></rect>
    </defs>
    <g id="Anasayfa-v2" stroke="none" stroke-width="1" fill="#000000" fill-rule="evenodd">
        <g transform="translate(-221.000000, -367.000000)" id="kagitkozmetik">
            <g transform="translate(221.000000, 367.000000)">
                <mask id="mask-2" fill="white">
                    <use xlink:href="#path-1"></use>
                </mask>
                <g id="mask"></g>
                <g id="-g--kagit_kozmetik" mask="url(#mask-2)"  fill="#000000" fill-rule="nonzero">
                    <g transform="translate(12.777778, 13.222222) scale(-1, 1) translate(-12.777778, -13.222222) translate(0.277778, 0.722222)">
                        <path d="M9.3690336,10.1988728 C8.52582751,9.61548029 7.95233647,8.42810036 7.9242164,7.22170968 L8.80782034,5.48579032 C8.92386514,5.23904659 8.90604256,4.95428136 8.7598974,4.72417204 C8.61375224,4.49406272 8.36384005,4.35663082 8.0913526,4.35663082 L7.92342428,4.35663082 L7.92342428,0.792114695 C7.92342428,0.355263441 7.56816084,0 7.13130959,0 L3.96285081,0 C3.52599955,0 3.17073611,0.355263441 3.17073611,0.792114695 L3.17073611,4.35663082 L3.00241174,4.35663082 C2.72992428,4.35663082 2.47961604,4.49406272 2.33386694,4.72417204 C2.18772177,4.95467742 2.16989919,5.23904659 2.2914888,5.49687993 L3.16954794,7.22170968 C3.14221998,8.44473477 2.58140278,9.60597491 1.72473073,10.1984767 C0.539331093,11.0191075 -0.0404968638,12.1225233 0.00227732975,13.4778315 L2.04870565,24.5555556 L9.04466263,24.5555556 L11.084754,13.5380323 L11.0910909,13.4786237 C11.1338651,12.1229194 10.5544332,11.0195036 9.3690336,10.1988728 Z M7.13091353,0.792114695 L7.13091353,4.35663082 L3.96245475,4.35663082 C3.96245475,4.35663082 3.96245475,0.792114695 3.96245475,0.792114695 L7.13091353,0.792114695 Z M8.38601927,23.7634409 L2.70774507,23.7634409 L2.19445475,20.9910394 L8.89930959,20.9910394 L8.38601927,23.7634409 Z M9.04585081,20.1989247 L2.04751747,20.1989247 L0.947270161,14.2580645 L10.1457021,14.2580645 L9.04585081,20.1989247 Z M10.3005605,13.4243638 L10.2926393,13.4659498 L0.800728943,13.4659498 L0.792807796,13.4243638 C0.767856183,12.3534247 1.22015367,11.5114068 2.17504794,10.8503871 C3.26064113,10.0990663 3.96205869,8.63840681 3.96205869,7.12903226 L3.96205869,7.03397849 L3.00241174,5.14874552 L3.17034005,5.14834946 L3.17034005,5.14874552 L7.92302823,5.14874552 L7.92302823,5.13805197 L8.09650134,5.13765591 L7.13091353,7.03397849 L7.13091353,7.12903226 C7.13091353,8.63840681 7.83233109,10.0990663 8.91832034,10.8503871 C9.87361066,11.5114068 10.3259082,12.3538208 10.3005605,13.4243638 Z" id="Shape" fill="#000000"></path>
                        <path d="M5.54668414,3.56451613 C6.20176299,3.56451613 6.73485618,3.03142294 6.73485618,2.37634409 C6.73485618,1.72126523 6.20176299,1.18817204 5.54668414,1.18817204 C4.89160529,1.18817204 4.3585121,1.72126523 4.3585121,2.37634409 C4.3585121,3.03142294 4.89160529,3.56451613 5.54668414,3.56451613 Z M5.54668414,1.98028674 C5.76491174,1.98028674 5.94274149,2.15811649 5.94274149,2.37634409 C5.94274149,2.59457168 5.76491174,2.77240143 5.54668414,2.77240143 C5.32845654,2.77240143 5.15062679,2.59457168 5.15062679,2.37634409 C5.15062679,2.15811649 5.32845654,1.98028674 5.54668414,1.98028674 Z" id="Shape" fill="#FFFFFF"></path>
                        <path d="M22.5751698,14.2580645 L21.3869978,14.2580645 L21.3869978,13.0698925 C21.3869978,12.4148136 20.8539046,11.8817204 20.1988257,11.8817204 L15.4461375,11.8817204 C14.7910587,11.8817204 14.2579655,12.4148136 14.2579655,13.0698925 L14.2579655,14.2580645 L13.0697935,14.2580645 C11.9778634,14.2580645 11.0895067,15.1464211 11.0895067,16.2383513 L11.0895067,22.5752688 C11.0895067,23.6671989 11.9778634,24.5555556 13.0697935,24.5555556 L22.5751698,24.5555556 C23.6670999,24.5555556 24.5554565,23.6671989 24.5554565,22.5752688 L24.5554565,20.9910394 L24.5554565,17.0304659 L24.5554565,16.2383513 C24.5554565,15.1464211 23.6670999,14.2580645 22.5751698,14.2580645 Z M15.0500802,13.0698925 C15.0500802,12.8512688 15.2279099,12.6738351 15.4461375,12.6738351 L20.1988257,12.6738351 C20.4170533,12.6738351 20.5948831,12.8512688 20.5948831,13.0698925 L20.5948831,14.2580645 L15.0500802,14.2580645 L15.0500802,13.0698925 Z M11.8816214,17.8225806 L14.2579655,17.8225806 L14.2579655,20.1989247 L11.8816214,20.1989247 L11.8816214,17.8225806 Z M23.7633418,22.5752688 C23.7633418,23.2303477 23.2302487,23.7634409 22.5751698,23.7634409 L13.0697935,23.7634409 C12.4147146,23.7634409 11.8816214,23.2303477 11.8816214,22.5752688 L11.8816214,20.9910394 L23.7633418,20.9910394 L23.7633418,22.5752688 Z M15.0500802,18.6146953 L15.0500802,17.8225806 L20.5948831,17.8225806 L20.5948831,18.6146953 L19.8027684,18.6146953 L19.8027684,19.40681 L20.5948831,19.40681 L20.5948831,20.1989247 L15.0500802,20.1989247 L15.0500802,19.40681 L19.0106537,19.40681 L19.0106537,18.6146953 L15.0500802,18.6146953 Z M23.7633418,20.1989247 L21.3869978,20.1989247 L21.3869978,17.8225806 L23.7633418,17.8225806 L23.7633418,20.1989247 Z M23.7633418,17.0304659 L11.8816214,17.0304659 L11.8816214,16.2383513 C11.8816214,15.5832724 12.4147146,15.0501792 13.0697935,15.0501792 L22.5751698,15.0501792 C23.2302487,15.0501792 23.7633418,15.5832724 23.7633418,16.2383513 L23.7633418,17.0304659 Z" id="Shape" fill="#000000"></path>
                        <rect id="Rectangle-path" fill="#3F4A58" x="7.52499059" y="18.6146953" width="1" height="1"></rect>
                        <rect id="Rectangle-path" fill="#3F4A58" x="2.77230242" y="18.6146953" width="3.96057348" height="1"></rect>
                    </g>
                </g>
            </g>
        </g>
    </g>
</svg>