<?xml version="1.0" encoding="UTF-8"?>
<svg width="23px" height="26px" viewBox="0 0 23 26" version="1.1" xmlns="http://www.w3.org/2000/svg" xmlns:xlink="http://www.w3.org/1999/xlink">
    <!-- Generator: sketchtool 50.2 (55047) - http://www.bohemiancoding.com/sketch -->
    <title>7C0EF1E9-3376-4282-9FFA-EF2E6EBD90C0</title>
    <desc>Created with sketchtool.</desc>
    <defs>
        <rect id="path-1" x="0" y="0" width="26" height="26"></rect>
    </defs>
    <g id="Anasayfa-v2" stroke="none" stroke-width="1" fill="none" fill-rule="evenodd">
        <g transform="translate(-223.000000, -284.000000)" id="icecek">
            <g transform="translate(221.000000, 284.000000)">
                <mask id="mask-2" fill="white">
                    <use xlink:href="#path-1"></use>
                </mask>
                <g id="mask"></g>
                <g id="-g--icecek" mask="url(#mask-2)" fill="" fill-rule="nonzero" stroke="#000000" stroke-width="0.5">
                    <g transform="translate(2.888889, 0.722222)" id="XMLID_419_">
                        <path d="M11.2410065,9.00201149 C11.0873393,9.15232459 10.839086,9.15133134 10.6866508,8.99991461 C9.84176084,8.16088714 8.71596895,7.69885643 7.51675951,7.69885643 C5.05433125,7.69885643 3.05094474,9.67284719 3.05094474,12.099212 C3.05094474,14.525632 5.05427525,16.4996227 7.51675951,16.4996227 C8.71596895,16.4996227 9.84176084,16.0375368 10.6867068,15.1984542 C10.839142,15.0470375 11.0873393,15.0460442 11.2410625,15.1963573 C11.3947298,15.3466152 11.3957378,15.5911775 11.2431906,15.7425943 C10.2498975,16.7289551 8.92647742,17.2721571 7.51670351,17.2721571 C4.62194608,17.2721571 2.2668721,14.9515743 2.2668721,12.099212 C2.2668721,9.24690487 4.62194608,6.9263221 7.51670351,6.9263221 C8.92653342,6.9263221 10.2498975,7.46952409 11.2431346,8.45577453 C11.3956818,8.60713608 11.3946738,8.85175356 11.2410065,9.00201149 Z M19.5229663,22.6575491 C19.5229663,23.693628 18.6674361,24.5366285 17.6158458,24.5366285 C17.011369,24.5366285 16.4548852,24.2512874 16.1007337,23.7959888 C15.7466941,24.2512874 15.1902103,24.5366285 14.5856775,24.5366285 C13.5341432,24.5366285 12.678557,23.6936831 12.678557,22.6575491 L12.678557,15.1538127 C12.678557,14.9744744 12.8037757,14.8187536 12.9809075,14.7778092 C13.4838541,14.6614325 13.8489259,14.2083411 13.8489259,13.7003998 C13.8489259,13.1946657 13.4870462,12.7431745 12.9874036,12.6243698 C12.9366105,12.6135543 12.8894575,12.593027 12.8480726,12.5648846 C12.8479046,12.5647191 12.8477366,12.5646087 12.8475686,12.5644984 C12.8475126,12.5644984 12.8474566,12.5644432 12.8474006,12.5644432 C12.8228721,12.5476682 12.8005276,12.5283548 12.7806472,12.506779 C12.7183739,12.4393478 12.6799011,12.3500649 12.678613,12.2520634 L12.678613,12.2520082 C12.678613,12.2520082 12.678613,12.2514564 12.678557,12.2511805 L12.678557,12.2507943 L12.678557,12.2501321 L12.678557,12.2495251 L12.678557,12.2490285 L12.678557,12.2482559 C12.678557,12.2481456 12.678557,12.24798 12.678557,12.24798 C12.678557,12.2474282 12.678557,12.2470419 12.678557,12.2467109 L12.678557,9.67764794 C12.678557,8.68687266 13.3080104,7.8382437 14.1936692,7.49959775 L14.1936692,5.6349206 C14.1936692,5.42159076 14.3691769,5.24865343 14.5856775,5.24865343 L17.6157898,5.24865343 C17.8322904,5.24865343 18.0077981,5.42159076 18.0077981,5.6349206 L18.0077981,7.49954257 C18.8933449,7.83818851 19.5229103,8.68687266 19.5229103,9.67764794 L19.5229103,12.2467109 C19.5229103,12.425994 19.3977476,12.5817149 19.2206159,12.6227144 C18.7177252,12.7391463 18.3526534,13.1923481 18.3526534,13.7002342 C18.3526534,14.2081203 18.7177252,14.6612669 19.2206159,14.7776989 C19.3977476,14.8186984 19.5229103,14.9744192 19.5229103,15.1537024 L19.5229103,16.0850477 C19.5229103,16.2983775 19.3474026,16.4713149 19.130902,16.4713149 C18.9144014,16.4713149 18.7388936,16.2983775 18.7388936,16.0850477 L18.7388936,15.4322562 C18.0454869,15.1422247 17.5686368,14.4570971 17.5686368,13.7002342 C17.5686368,12.9433161 18.0455429,12.2580782 18.7388936,11.9680467 L18.7388936,9.67753758 C18.7388936,8.81588589 18.0274545,8.11492135 17.152996,8.11492135 L15.0485833,8.11492135 C14.1740688,8.11492135 13.4626297,8.81588589 13.4626297,9.67753758 L13.4626297,11.8603333 L16.495598,11.8603333 C16.7120986,11.8603333 16.8876064,12.0332707 16.8876064,12.2466005 C16.8876064,12.4599303 16.7120986,12.6328677 16.495598,12.6328677 L14.2897112,12.6328677 C14.5067158,12.9402811 14.6329985,13.3107114 14.6329985,13.700179 C14.6329985,14.4572075 14.1560364,15.1423903 13.4626297,15.4323114 L13.4626297,17.3392572 L17.3932971,17.3392572 C17.6097977,17.3392572 17.7853054,17.5121945 17.7853054,17.7255243 C17.7853054,17.9388542 17.6097977,18.1117915 17.3932971,18.1117915 L13.4626297,18.1117915 L13.4626297,22.6574939 C13.4626297,23.2676856 13.9664164,23.764039 14.5857335,23.764039 C15.0862721,23.764039 15.5309776,23.4314077 15.6671725,22.9551403 C15.7147735,22.788604 15.8689447,22.6736067 16.0444525,22.6736067 L16.1571269,22.6736067 C16.3326906,22.6736067 16.4868619,22.788604 16.5344069,22.9551403 C16.6706578,23.4314077 17.1153072,23.764039 17.6159018,23.764039 C18.235219,23.764039 18.7390056,23.2676856 18.7390056,22.6574939 C18.7390056,22.444164 18.9145134,22.2712267 19.131014,22.2712267 C19.3475146,22.2712267 19.5229663,22.4442192 19.5229663,22.6575491 Z M14.9777418,7.34354582 C15.0012623,7.34282846 15.0249508,7.34249738 15.0486393,7.34249738 L17.153052,7.34249738 C17.1767405,7.34249738 17.200373,7.34282846 17.2238935,7.34354582 L17.2238935,6.02124295 L16.492854,6.02124295 L16.492854,6.29913458 C16.492854,6.51246442 16.3173463,6.68540175 16.1008457,6.68540175 C15.8843451,6.68540175 15.7088373,6.51246442 15.7088373,6.29913458 L15.7088373,6.02124295 L14.9777418,6.02124295 L14.9777418,7.34354582 Z M11.6588314,21.8569276 C11.6588314,22.0702574 11.4833237,22.2431948 11.2668231,22.2431948 L0.443249406,22.2431948 C0.226748812,22.2431948 0.0512410873,22.0702574 0.0512410873,21.8569276 L0.0512410873,2.3414412 C0.0512410873,2.12811136 0.226748812,1.95517403 0.443249406,1.95517403 L2.88058913,1.95517403 L2.88058913,0.386267166 C2.88058913,0.172937328 3.05609685,0 3.27259745,0 L6.10200149,0 C6.31850208,0 6.4940098,0.172937328 6.4940098,0.386267166 L6.4940098,1.95517403 L14.5900456,1.95517403 C14.8065462,1.95517403 14.9820539,2.12811136 14.9820539,2.3414412 L14.9820539,3.82150662 C14.9820539,4.03483645 14.8065462,4.20777378 14.5900456,4.20777378 C14.373545,4.20777378 14.1980373,4.03483645 14.1980373,3.82150662 L14.1980373,2.72770836 L0.835257724,2.72770836 L0.835257724,21.4706604 L11.2668231,21.4706604 C11.4833237,21.4706604 11.6588314,21.6435978 11.6588314,21.8569276 Z M3.66460576,1.95517403 L5.70999317,1.95517403 L5.70999317,0.772534332 L5.07930778,0.772534332 L5.07930778,1.00644669 C5.07930778,1.21977653 4.90380006,1.39271386 4.68729947,1.39271386 C4.47079887,1.39271386 4.29529115,1.21977653 4.29529115,1.00644669 L4.29529115,0.772534332 L3.66460576,0.772534332 L3.66460576,1.95517403 Z M7.57024064,11.7129448 L7.46316637,11.7129448 C7.24666578,11.7129448 7.07115805,11.8858821 7.07115805,12.099212 C7.07115805,12.3125418 7.24666578,12.4854792 7.46316637,12.4854792 L7.57024064,12.4854792 C7.78674124,12.4854792 7.96224896,12.3125418 7.96224896,12.099212 C7.96224896,11.8858821 7.78674124,11.7129448 7.57024064,11.7129448 Z M17.4420181,11.4532629 C17.6585187,11.4532629 17.8340264,11.2803256 17.8340264,11.0669958 L17.8340264,10.0299788 C17.8340264,9.38314682 17.2999991,8.85694057 16.6436092,8.85694057 C16.4271086,8.85694057 16.2516009,9.0298779 16.2516009,9.24320774 C16.2516009,9.45653758 16.4271086,9.62947491 16.6436092,9.62947491 C16.8676699,9.62947491 17.0500098,9.80914432 17.0500098,10.0299788 L17.0500098,11.0669958 C17.0500098,11.2803256 17.2255175,11.4532629 17.4420181,11.4532629 Z M20.7398721,20.5404187 C20.4291775,21.1386362 19.8126604,21.5102252 19.130958,21.5102252 C18.4779841,21.5102252 17.8737873,21.1612604 17.5541885,20.5995176 C16.9586159,19.5524025 17.6667509,18.7419036 18.2914441,18.0268127 C18.471096,17.8211531 18.6568519,17.6085406 18.8108552,17.3938864 C18.8843847,17.2915808 19.0036673,17.2306609 19.130958,17.2306609 C19.2582487,17.2306609 19.3775312,17.2915808 19.4510608,17.3938864 C19.605008,17.6084302 19.79054,17.8206564 19.9699678,18.0259298 C20.5803807,18.7242457 21.2721634,19.5157071 20.7398721,20.5404187 Z M19.3759072,18.530174 C19.2947054,18.4372492 19.2123277,18.3430552 19.131014,18.2466539 C19.0495322,18.3432759 18.9669865,18.4377458 18.8856168,18.5308362 C18.2631075,19.2433888 17.9260924,19.6732489 18.238075,20.2218035 C18.4190709,20.5400325 18.7612381,20.7377461 19.130902,20.7377461 C19.5169182,20.7377461 19.8659736,20.5272856 20.0419293,20.1884742 C20.3204792,19.6523353 19.9878321,19.2301453 19.3759072,18.530174 Z M10.6546181,10.3414757 C10.9550645,10.8602325 11.1269321,11.4603261 11.1269321,12.099212 C11.1269321,12.7380979 10.9551205,13.3381363 10.6546741,13.8569483 C10.65109,13.8640115 10.6472259,13.8710195 10.6431939,13.8779171 C10.6388818,13.8853114 10.6344017,13.8924849 10.6296416,13.8994377 C10.0014762,14.949974 8.84124361,15.656567 7.51675951,15.656567 C6.1923874,15.656567 5.03226679,14.9501396 4.40404545,13.8997688 C4.39928535,13.8927056 4.39469326,13.8854217 4.39026916,13.8779171 C4.38612507,13.8708539 4.38226099,13.8637908 4.37862092,13.856562 C4.07828654,13.3379156 3.9065309,12.7379875 3.9065309,12.099212 C3.9065309,11.4604365 4.07828654,10.8605635 4.37862092,10.3418067 C4.38226099,10.3346332 4.38612507,10.3275149 4.39026916,10.3205069 C4.39463725,10.3130022 4.39922935,10.3057184 4.40404545,10.2986552 C5.03226679,9.24828439 6.1924434,8.54185693 7.51675951,8.54185693 C8.84135561,8.54185693 10.0015322,9.24828439 10.6296976,10.2989863 C10.6344017,10.3059391 10.6388818,10.3131678 10.6431939,10.3205069 C10.6472259,10.3274045 10.651034,10.3344125 10.6546181,10.3414757 Z M10.3428595,12.099212 C10.3428595,11.7300509 10.2695539,11.3774442 10.1366071,11.0547456 L8.82763532,11.7994135 C8.64025535,11.9060232 8.40040226,11.8428409 8.29215196,11.6579845 C8.18390166,11.4732385 8.24813503,11.2370085 8.43562701,11.1302884 L9.74353476,10.3862275 C9.30202139,9.83016829 8.65111958,9.44301823 7.90871182,9.34109888 L7.90871182,10.8307106 C7.90871182,11.0440404 7.7332041,11.2169778 7.51670351,11.2169778 C7.30020291,11.2169778 7.12469519,11.0440404 7.12469519,10.8307106 L7.12469519,9.34109888 C6.38228743,9.44307341 5.73138562,9.83022347 5.28981625,10.3862826 L6.597724,11.1302884 C6.78521598,11.2370085 6.84944935,11.4732385 6.74119905,11.6579845 C6.63289275,11.8427858 6.39315166,11.9058577 6.20571569,11.7994135 L4.89674391,11.0547456 C4.76374109,11.3774442 4.69049153,11.7299958 4.69049153,12.099212 C4.69049153,12.4684282 4.76379709,12.8209798 4.89674391,13.1436784 L6.20571569,12.3990105 C6.39320766,12.2925111 6.63300475,12.3556382 6.74119905,12.5404395 C6.84944935,12.7251855 6.78521598,12.9614155 6.597724,13.0681356 L5.28981625,13.8121413 C5.73132962,14.3682557 6.38228743,14.7554057 7.12469519,14.8573251 L7.12469519,13.3677134 C7.12469519,13.1543835 7.30020291,12.9814462 7.51670351,12.9814462 C7.7332041,12.9814462 7.90871182,13.1543835 7.90871182,13.3677134 L7.90871182,14.8573251 C8.65111958,14.7553506 9.30202139,14.3682557 9.74353476,13.8121965 L8.43562701,13.0681356 C8.24813503,12.9614155 8.18390166,12.7251855 8.29215196,12.5404395 C8.40040226,12.355583 8.64014335,12.2925111 8.82763532,12.3990105 L10.1366071,13.1436784 C10.2696099,12.8209798 10.3428595,12.468373 10.3428595,12.099212 Z"></path>
                    </g>
                </g>
            </g>
        </g>
    </g>
</svg>