<svg width="23px" height="26px" viewBox="0 0 23 26" version="1.1" xmlns="http://www.w3.org/2000/svg" xmlns:xlink="http://www.w3.org/1999/xlink">
    <defs>
        <rect id="path-1" x="0" y="0" width="26" height="26"></rect>
    </defs>
    <g id="Anasayfa-v2" stroke="none" stroke-width="1" fill="none" fill-rule="evenodd">
        <g transform="translate(-223.000000, -116.000000)" id="meyvesebze">
            <g transform="translate(221.000000, 116.000000)">
                <mask id="mask-2" fill="white">
                    <use xlink:href="#path-1"></use>
                </mask>
                <g id="mask"></g>
                <g id="-g--meyvesebze" mask="url(#mask-2)" fill="#000000" fill-rule="nonzero">
                    <g transform="translate(2.166667, 0.722222)" id="XMLID_892_">
                        <path d="M2.5524382,21.0222379 C2.51922212,21.3607897 2.66364751,21.6929306 2.92943482,21.8889865 C3.07374284,21.9954068 3.378204,22.1485098 3.79551767,21.9779226 C4.00526018,21.8921336 4.24540187,21.991502 4.33178715,22.1999133 C4.41817243,22.4082663 4.3180547,22.6466921 4.1082535,22.7324811 C3.88184426,22.8250307 3.65074016,22.8707809 3.42444829,22.8707809 C3.0730973,22.8707809 2.73313132,22.7605724 2.43958569,22.5441183 C1.94375063,22.1784078 1.67362057,21.5649465 1.73471234,20.9430346 L2.3949846,14.231153 C2.41699172,14.0068894 2.61822482,13.8432958 2.84375377,13.8648013 C3.06957616,13.8867148 3.23471758,14.0862675 3.21265178,14.3104728 L2.5524382,21.0222379 Z M9.00604058,23.5199681 C9.12834148,23.7097297 9.0726488,23.9620263 8.88156832,24.083483 C8.63855103,24.2379847 8.37669566,24.3565857 8.10322052,24.4360221 C7.82780876,24.5160413 7.54682186,24.5555556 7.26425045,24.5555556 C6.56137241,24.5555556 5.84816569,24.3110686 5.18208355,23.8365482 C4.0563167,24.6345257 2.77280282,24.7763223 1.69492347,24.2065715 C0.562055654,23.607797 -0.112829335,22.3287716 0.0155748694,21.0238697 L1.39134259,7.03740769 C1.44967613,6.44446119 1.60689499,5.90583218 1.8591846,5.42967995 C1.4800753,5.19778157 1.15806713,4.87158523 0.932714227,4.47143085 C0.862995673,4.34764293 0.862995673,4.1968711 0.932714227,4.07314145 C1.40120178,3.24130291 2.28477295,2.72452912 3.23859084,2.72452912 L3.62380345,2.72452912 L3.62380345,2.34191719 C3.62380345,1.39456656 4.14422781,0.517094337 4.98202416,0.0518988455 C5.1066138,-0.0172801883 5.25843358,-0.0173384689 5.38302322,0.0519571261 C6.22052615,0.517210898 6.74083313,1.39468312 6.74083313,2.34191719 L6.74083313,2.72452912 L7.12610443,2.72452912 C8.08003969,2.72452912 8.96361086,3.24130291 9.43198104,4.07319973 C9.50164091,4.19692938 9.50164091,4.34764293 9.43198104,4.47137257 C9.20668682,4.87152695 8.88467866,5.19778157 8.50556935,5.42967995 C8.75780028,5.90589046 8.91507782,6.44451947 8.97341136,7.03746597 L9.26924573,10.0447433 C9.29131153,10.2690069 9.12617011,10.4685013 8.90034772,10.4904148 C8.88679134,10.4916969 8.87329364,10.4923963 8.85991331,10.4923963 C8.65099239,10.4923963 8.47229458,10.3348056 8.45157855,10.1240631 L8.15574418,7.11678582 C8.10521584,6.60275121 7.96536793,6.14355862 7.74212771,5.7456189 C7.54253781,5.79358381 7.33625775,5.82004319 7.12616312,5.82004319 L3.23847346,5.82004319 C3.02843752,5.82004319 2.82215745,5.79358381 2.62262624,5.7456189 C2.39932734,6.14355862 2.25953812,6.60275121 2.20900977,7.11672754 L0.833242048,21.1033061 C0.736762838,22.0832939 1.23817304,23.0409602 2.08089899,23.4863403 C2.95249829,23.9469899 3.9875958,23.7724396 4.9209324,23.0074488 C5.07275218,22.8829615 5.29211914,22.8830198 5.44399761,23.0074488 C6.22862477,23.6506915 7.09112778,23.8799089 7.87270329,23.6529644 C8.07111947,23.5953832 8.26149573,23.5090697 8.43860902,23.3964133 C8.6296895,23.2748984 8.883681,23.3302649 9.00604058,23.5199681 Z M3.23847346,5.00411524 L7.12604574,5.00411524 C7.70310175,5.00411524 8.24312712,4.72868128 8.58497103,4.27228615 C8.24312712,3.81583275 7.70310175,3.54045706 7.12604574,3.54045706 L6.32997489,3.54045706 C6.10309616,3.54045706 5.91917533,3.35780577 5.91917533,3.13249309 L5.91917533,2.34191719 C5.91917533,1.76890265 5.64182694,1.23260487 5.18237698,0.893003998 C4.72269227,1.23254659 4.44534388,1.76884437 4.44534388,2.34191719 L4.44534388,3.13249309 C4.44534388,3.35780577 4.26142305,3.54045706 4.03454432,3.54045706 L3.23847346,3.54045706 C2.66153483,3.54045706 2.12150946,3.81594931 1.77954817,4.27228615 C2.12150946,4.72868128 2.66153483,5.00411524 3.23847346,5.00411524 Z M13.416502,12.1331691 L13.4166194,12.1332274 C13.4257157,12.1377733 13.434988,12.1419112 13.4444364,12.1457577 C13.7976653,12.2896524 13.9304709,12.4521387 13.9335813,12.5262715 C13.9359287,12.5829203 13.8455528,12.7146926 13.5870425,12.8458239 C13.3849878,12.9482811 13.3048232,13.193992 13.4079926,13.394652 C13.4805867,13.5358658 13.6247187,13.6171672 13.7741911,13.6171672 C13.8370434,13.6171672 13.9008347,13.6027719 13.9606354,13.572466 C14.1266571,13.4882506 14.2586411,13.3982654 14.3637471,13.3066483 C14.4689118,13.3983237 14.6008371,13.4883089 14.7668589,13.572466 C14.8267182,13.6028302 14.8904508,13.6171672 14.9533032,13.6171672 C15.1027755,13.6171672 15.2469075,13.5358658 15.3195016,13.394652 C15.422671,13.193992 15.3425064,12.9482229 15.1404517,12.8458239 C14.8818827,12.7146926 14.7915655,12.5829203 14.7939129,12.5262715 C14.7970233,12.4521387 14.9298289,12.2895942 15.2830578,12.1457577 C15.2925062,12.1419112 15.3017786,12.137715 15.3108748,12.1332274 L15.3109922,12.1331691 C15.5139272,12.032402 15.5960871,11.7873322 15.4946783,11.5858563 C15.3972601,11.3923065 15.1656865,11.3093733 14.9677398,11.3923065 C14.7031849,11.5004753 14.5078204,11.6235056 14.3637471,11.7495664 C14.2197325,11.6235056 14.0243093,11.5004753 13.7597544,11.3923065 C13.5618077,11.3093733 13.3302341,11.3923065 13.2328159,11.5858563 C13.1313484,11.7873322 13.213567,12.032402 13.416502,12.1331691 Z M17.8962125,23.523057 C16.8153402,24.0574315 15.5993735,24.3249976 14.3836415,24.3250559 C13.1954332,24.3251142 12.0074008,24.0696705 10.944369,23.5580836 C7.5626083,21.9308902 5.65115796,16.5084079 6.63737033,13.4930296 C6.89406137,12.7081652 7.32698541,12.1248933 7.9241706,11.7594741 C8.57288179,11.3624669 9.38239166,11.2464886 10.3299889,11.4148028 L10.4495315,11.436017 C10.7635585,11.2417678 11.1186067,11.1003209 11.4953099,11.0236237 C11.2721283,10.3361461 11.3813423,9.58490958 11.8190199,8.95676162 C11.8947831,8.84801008 12.0189032,8.78250272 12.1520023,8.78092915 C13.0081673,8.77090489 13.8195551,9.0842795 14.3845218,9.61999448 C14.9407444,9.09255534 15.7388106,8.78075431 16.5773699,8.78075431 C16.5906328,8.78075431 16.6038958,8.78081259 16.6171587,8.78098743 C16.7502578,8.782561 16.8743193,8.84806836 16.9500824,8.95676162 C17.38776,9.58496786 17.4970327,10.3360878 17.2737925,11.0236237 C17.6508478,11.1003792 18.0063068,11.2420592 18.3205685,11.4366581 L18.435651,11.4153274 C19.3733304,11.2413016 20.1766196,11.34982 20.8232181,11.7376772 C21.4188187,12.0949371 21.8535034,12.6694086 22.1151827,13.4450647 C23.1242824,16.4359069 21.2596046,21.8601376 17.8962125,23.523057 Z M10.4451301,12.4887971 C10.8393803,12.9249689 11.4551102,13.1934092 12.1158519,13.2043077 C12.2647961,13.2067555 12.4007121,13.2891059 12.4710762,13.4194212 C12.5414403,13.5497949 12.5352783,13.7077352 12.4549376,13.8322808 C12.1440797,14.3142028 12.121251,14.8770765 12.3832238,15.3738018 C13.0719586,15.3230394 13.6963152,14.9998737 14.0481357,14.5014583 C14.1250139,14.3925319 14.2505425,14.3276656 14.3845218,14.3276656 C14.5185012,14.3276656 14.6440298,14.3925319 14.720908,14.5015165 C15.0725524,14.9998737 15.6970264,15.3229811 16.3858199,15.3738018 C16.6476753,14.8770765 16.6249053,14.3141445 16.3139887,13.8323391 C16.2335893,13.7077935 16.2274273,13.5497949 16.2977914,13.4194795 C16.3681555,13.2891642 16.5041302,13.2068137 16.6530157,13.204366 C17.3136987,13.1934675 17.9294286,12.9250855 18.3236788,12.4888554 C17.9293699,12.0526254 17.3136987,11.7842434 16.6530744,11.7734615 C16.5041302,11.7710137 16.3682142,11.6887215 16.2977914,11.5583479 C16.2273687,11.4279743 16.2335893,11.2699756 16.31393,11.1454301 C16.6249053,10.663508 16.647734,10.1006343 16.3858199,9.60390904 C15.6969677,9.65467142 15.0725524,9.97777889 14.7208493,10.476136 C14.6439711,10.5851207 14.5183838,10.649987 14.3844631,10.649987 C14.2505425,10.649987 14.1249552,10.5851207 14.048077,10.4761943 C13.6963739,9.97783717 13.0718999,9.6547297 12.3831651,9.60390904 C12.1211923,10.1006343 12.144021,10.6635663 12.4549963,11.1455466 C12.535337,11.2700922 12.5415576,11.4280908 12.4711349,11.5584062 C12.4007121,11.6887215 12.2647961,11.771072 12.1158519,11.7735197 C11.4551689,11.7841851 10.839439,12.0526254 10.4451301,12.4887971 Z M21.3361893,13.7044132 C20.9698148,12.618588 20.2209859,12.0991333 19.1068975,12.1548495 C19.1337755,12.1914497 19.1597733,12.228691 19.1845973,12.2666899 C19.2729779,12.4017843 19.2729779,12.5759266 19.1845973,12.7110209 C18.7706287,13.344181 18.0691004,13.7920089 17.2737925,13.9539706 C17.496974,14.6413899 17.38776,15.3924516 16.9501998,16.0206578 C16.8744366,16.1294094 16.7503165,16.194975 16.6172174,16.1965486 C15.7650431,16.2055821 14.9495473,15.8933148 14.3845805,15.3574832 C13.8282992,15.8849807 13.0302331,16.1967817 12.1917325,16.1967817 C12.1784695,16.1967817 12.1653239,16.1967234 12.152061,16.1965486 C12.0189032,16.194975 11.8948418,16.1294676 11.8190786,16.0207161 C11.381401,15.3925681 11.272187,14.6413899 11.4953099,13.9539706 C10.6998845,13.7920672 9.99841494,13.3442393 9.58438768,12.7110209 C9.49606577,12.5759266 9.49606577,12.4017843 9.58438768,12.2666316 C9.60833142,12.2300314 9.63344888,12.1941889 9.65927057,12.1588708 C8.53191921,12.1112556 7.77933441,12.642891 7.41882846,13.7451513 C7.00145611,15.0213209 7.19382767,16.9369449 7.92094289,18.7444002 C8.6984104,20.6769255 9.93098513,22.1638376 11.3027035,22.823865 C13.2295295,23.7511089 15.6157468,23.7391614 17.5301901,22.7926849 C18.8959226,22.1174463 20.1154104,20.6208013 20.8758591,18.6865276 C21.586601,16.8784312 21.7630101,14.9694512 21.3361893,13.7044132 Z M13.4078165,21.38247 C12.2768854,21.1914846 11.2775274,20.6266876 10.5937809,19.7921682 C10.3087447,19.4441166 9.98855576,18.8008157 9.7372638,18.0713762 C9.66390673,17.8581858 9.43033784,17.7445387 9.21560704,17.8174477 C9.00093493,17.8903567 8.88643923,18.1223134 8.95991366,18.3355037 C9.24506724,19.1634374 9.60833142,19.8820951 9.9564547,20.3071353 C10.7659059,21.2951658 11.9427293,21.9627114 13.2700226,22.1869167 C13.2933208,22.1908215 13.3165017,22.1927448 13.3393891,22.1927448 C13.5360447,22.1927448 13.7098129,22.0520555 13.7439093,21.8531439 C13.7819963,21.6309201 13.6314676,21.4202359 13.4078165,21.38247 Z"></path>
                    </g>
                </g>
            </g>
        </g>
    </g>
</svg>