<?xml version="1.0" encoding="UTF-8"?>
<svg width="26px" height="26px" viewBox="0 0 26 26" version="1.1" xmlns="http://www.w3.org/2000/svg" xmlns:xlink="http://www.w3.org/1999/xlink">
    <!-- Generator: sketchtool 50.2 (55047) - http://www.bohemiancoding.com/sketch -->
    <title>AB81A1D0-880B-4B21-8282-1A2601D9A4EB</title>
    <desc>Created with sketchtool.</desc>
    <defs>
        <rect id="path-1" x="0" y="0" width="26" height="26"></rect>
    </defs>
    <g id="Anasayfa-v2" stroke="none" stroke-width="1" fill="none" fill-rule="evenodd">
        <g transform="translate(-221.000000, -451.000000)" id="evpet">
            <g transform="translate(221.000000, 451.000000)">
                <mask id="mask-2" fill="white">
                    <use xlink:href="#path-1"></use>
                </mask>
                <g id="mask"></g>
                <g id="-g--ev_pet" mask="url(#mask-2)" fill="#000000" fill-rule="nonzero">
                    <g transform="translate(0.722222, 0.722222)" id="Shape">
                        <path d="M22.9713262,4.28058781 L22.9713262,0 L8.71326165,0 L8.71326165,4.28058781 L7.12903226,8.24116129 L7.12903226,16.6344086 L5.54480287,16.6344086 C3.71343369,16.6344086 2.2016828,18.0233817 2.00365412,19.8028674 L1.7355233,19.8028674 L0,23.273914 L0,24.5555556 L14.6541219,24.5555556 L15.0501792,24.5555556 L24.5555556,24.5555556 L24.5555556,8.24116129 L22.9713262,4.28058781 Z M14.2580645,23.7634409 L7.52508961,23.7634409 L0.792114695,23.7634409 L0.792114695,23.460853 L2.22505018,20.5949821 L3.56451613,20.5949821 L3.56451613,19.8028674 L2.80408602,19.8028674 C2.99736201,18.4614211 4.15107706,17.4265233 5.54480287,17.4265233 L8.71326165,17.4265233 L9.50537634,17.4265233 C10.8991022,17.4265233 12.0528172,18.4614211 12.2460932,19.8028674 L4.35663082,19.8028674 L4.35663082,20.5949821 L7.52508961,20.5949821 L12.825129,20.5949821 L14.2580645,23.460853 L14.2580645,23.7634409 Z M20.5949821,23.7634409 L15.0501792,23.7634409 L15.0501792,23.273914 L13.3146559,19.8028674 L13.0465251,19.8028674 C12.9399857,18.8455968 12.4532312,18.0023907 11.740724,17.4265233 L17.0304659,17.4265233 L17.0304659,16.6344086 L9.50537634,16.6344086 L9.50537634,9.90143369 L19.0107527,9.90143369 L19.0107527,16.6344086 L17.8225806,16.6344086 L17.8225806,17.4265233 L19.8028674,17.4265233 L19.8028674,9.109319 L8.71326165,9.109319 L8.71326165,16.6344086 L7.92114695,16.6344086 L7.92114695,8.39324731 L9.50537634,4.43267384 L9.50537634,0.792114695 L22.1792115,0.792114695 L22.1792115,4.28019176 L20.5949821,8.24116129 L20.5949821,23.7634409 Z M21.6005717,23.7634409 L22.5752688,21.5700753 L23.5499659,23.7634409 L21.6005717,23.7634409 Z M23.7634409,22.293276 L22.9713262,20.5110179 L22.9713262,19.40681 L22.1792115,19.40681 L22.1792115,20.5110179 L21.3870968,22.293276 L21.3870968,8.39324731 L22.1792115,6.41296057 L22.1792115,18.6146953 L22.9713262,18.6146953 L22.9713262,6.41296057 L23.7634409,8.39324731 L23.7634409,22.293276 Z"></path>
                        <path d="M17.8708996,13.2679211 C18.0934839,12.990681 18.218638,12.6433387 18.218638,12.2777778 C18.218638,11.4040753 17.5081111,10.6935484 16.6344086,10.6935484 C15.8977419,10.6935484 15.276724,11.1993136 15.1000824,11.8817204 L13.4156505,11.8817204 C13.239405,11.1993136 12.6183871,10.6935484 11.8813244,10.6935484 C11.0076219,10.6935484 10.297095,11.4040753 10.297095,12.2777778 C10.297095,12.6433387 10.4222491,12.990681 10.6448333,13.2679211 C10.4226452,13.5451613 10.297491,13.8925036 10.297491,14.2580645 C10.297491,15.131767 11.0080179,15.8422939 11.8817204,15.8422939 C12.6183871,15.8422939 13.239405,15.3365287 13.4160466,14.6541219 L15.1004785,14.6541219 C15.276724,15.3365287 15.8977419,15.8422939 16.6348047,15.8422939 C17.5085072,15.8422939 18.2190341,15.131767 18.2190341,14.2580645 C18.218638,13.8925036 18.0934839,13.5451613 17.8708996,13.2679211 Z M17.0708638,13.5978369 C17.2938441,13.7455663 17.4265233,13.99231 17.4265233,14.2580645 C17.4265233,14.6949158 17.0712599,15.0501792 16.6344086,15.0501792 C16.1975573,15.0501792 15.8422939,14.6949158 15.8422939,14.2580645 L15.8422939,13.8620072 L12.6738351,13.8620072 L12.6738351,14.2580645 C12.6738351,14.6949158 12.3185717,15.0501792 11.8817204,15.0501792 C11.4448692,15.0501792 11.0896057,14.6949158 11.0896057,14.2580645 C11.0896057,13.99231 11.2222849,13.7455663 11.4452652,13.5978369 L11.9431093,13.2679211 L11.4452652,12.9380054 C11.2222849,12.790276 11.0896057,12.5435323 11.0896057,12.2777778 C11.0896057,11.8409265 11.4448692,11.4856631 11.8817204,11.4856631 C12.3185717,11.4856631 12.6738351,11.8409265 12.6738351,12.2777778 L12.6738351,12.6738351 L15.8422939,12.6738351 L15.8422939,12.2777778 C15.8422939,11.8409265 16.1975573,11.4856631 16.6344086,11.4856631 C17.0712599,11.4856631 17.4265233,11.8409265 17.4265233,12.2777778 C17.4265233,12.5435323 17.2938441,12.790276 17.0708638,12.9380054 L16.5730197,13.2679211 L17.0708638,13.5978369 Z"></path>
                        <path d="M9.109319,22.1792115 C9.109319,21.305509 8.39879211,20.5949821 7.52508961,20.5949821 C6.6513871,20.5949821 5.94086022,21.305509 5.94086022,22.1792115 C5.94086022,23.052914 6.6513871,23.7634409 7.52508961,23.7634409 C8.39879211,23.7634409 9.109319,23.052914 9.109319,22.1792115 Z M7.52508961,22.9713262 C7.08823835,22.9713262 6.73297491,22.6160627 6.73297491,22.1792115 C6.73297491,21.7423602 7.08823835,21.3870968 7.52508961,21.3870968 C7.96194086,21.3870968 8.3172043,21.7423602 8.3172043,22.1792115 C8.3172043,22.6160627 7.96194086,22.9713262 7.52508961,22.9713262 Z"></path>
                    </g>
                </g>
            </g>
        </g>
    </g>
</svg>