<?xml version="1.0" encoding="UTF-8"?>
<svg width="26px" height="22px" viewBox="0 0 26 22" version="1.1" xmlns="http://www.w3.org/2000/svg" xmlns:xlink="http://www.w3.org/1999/xlink">
    <!-- Generator: sketchtool 50.2 (55047) - http://www.bohemiancoding.com/sketch -->
    <title>A09BE94D-6769-4E21-AC01-0BEC14B97063</title>
    <desc>Created with sketchtool.</desc>
    <defs>
        <rect id="path-1" x="0" y="0" width="26" height="26"></rect>
    </defs>
    <g id="Anasayfa-v2" stroke="none" stroke-width="1" fill="none" fill-rule="evenodd">
        <g transform="translate(-221.000000, -159.000000)" id="etbalik">
            <g transform="translate(221.000000, 158.000000)">
                <mask id="mask-2" fill="white">
                    <use xlink:href="#path-1"></use>
                </mask>
                <g id="mask"></g>
                <g id="-g--fishandmeat" mask="url(#mask-2)" fill="#FFFFFF" stroke="#000000" stroke-width="0.5">
                    <g transform="translate(0.722222, 1.444444)">
                        <path d="M4.05771659,11.0686064 C3.42247504,10.9035358 2.72317552,12.2595998 2.39398873,13.5230113 C2.21177939,14.2163079 2.12280998,14.89008 2.14345089,15.420081 C2.17405636,16.1936055 2.42850886,16.4211544 2.63705314,16.475113 C2.67335266,16.4850527 2.7092963,16.4889576 2.74844283,16.4889576 C3.36411111,16.4889576 3.98013527,15.2077966 4.29259581,14.0178682 C4.61822383,12.7825009 4.49010789,11.1822034 4.05771659,11.0686064 Z M3.92995652,13.9252156 C3.57265539,15.2826996 3.00147182,16.1172825 2.74701932,16.1172825 L2.73029308,16.1147976 C2.66481159,16.098113 2.53705153,15.9273625 2.51605475,15.4058814 C2.49683736,14.9124444 2.58153623,14.2759463 2.753781,13.6185038 C3.11108213,12.252855 3.65486312,11.4775556 3.93422705,11.4331817 C4.06341063,11.647951 4.23992593,12.7448719 3.92995652,13.9252156 Z" id="Fill-1"></path>
                        <path d="M20.8384138,16.8663126 C20.5394767,16.3171422 19.7956924,16.0938531 19.2394557,16.3948851 C19.1116957,16.4641083 18.9978148,16.5596008 18.9031514,16.6749727 L17.6283977,16.3391516 L17.6269742,16.3434115 C16.8678873,16.1272222 15.051132,15.4158211 12.355715,11.725694 C9.24712399,7.46864689 5.59404026,7.28689171 5.46877134,7.28689171 C5.46877134,7.28689171 5.46877134,7.28689171 5.46877134,7.28689171 C5.22001288,7.22192844 4.95595169,7.21766855 4.68477295,7.27730697 C3.86732206,7.3326855 3.10289694,8.17578814 2.60217713,8.87760452 C1.82244928,9.9187919 1.16621095,11.3568588 0.757663446,12.9198823 L0.716025765,13.0792731 C0.269755233,14.7764831 0.150180354,16.4502637 0.377942029,17.7910631 C0.607483092,19.1389623 1.16905797,20.0154341 1.92956844,20.2593126 C1.96302093,20.2706723 1.99611755,20.283097 2.03099356,20.2926817 C2.19647665,20.3732646 3.3961401,20.9291798 5.33389372,20.9291798 C6.93961353,20.9291798 8.58839452,20.54792 10.235752,19.7978249 C12.5322303,18.7491827 14.4504106,18.2181168 15.9379791,18.2181168 C16.473219,18.2181168 16.8429758,18.2876949 17.1113076,18.3526582 L18.3817907,18.6870593 C18.4056345,18.774387 18.4401546,18.8617147 18.4846393,18.9433625 C18.6917601,19.3207175 19.0896312,19.5564313 19.5216667,19.5564313 C19.7177552,19.5564313 19.9124203,19.5063776 20.0835974,19.413725 C20.5227504,19.1765913 20.7604767,18.6909642 20.68681,18.2071121 C21.0120821,17.8396968 21.0761401,17.302951 20.8384138,16.8663126 Z M2.15199195,19.9376911 C0.738090177,19.5464915 0.237726248,16.3892053 1.07866506,13.1790254 C1.08008857,13.1761855 1.08008857,13.1733456 1.08008857,13.1719256 L0.768695652,13.0902778 L1.08720612,13.1470763 L1.05660064,13.1389115 L1.08720612,13.1442363 L1.10642351,13.0721733 C1.50820934,11.5911525 2.16444767,10.1435009 2.90680837,9.09805367 C3.51713849,8.28406026 4.15665056,7.78210358 4.75274557,7.64614218 C4.7570161,7.64472222 4.76128663,7.64330226 4.76698068,7.64330226 L4.76804831,7.64898211 C4.8349533,7.64898211 4.90043478,7.65856685 4.96271337,7.67383145 C5.52713527,7.82079755 5.99013205,8.671 6.20152335,9.94790113 C6.42679388,11.3043202 6.33782448,12.9156224 5.95525604,14.3689539 C5.12961997,17.5152354 3.28225926,20.2511478 2.15199195,19.9376911 Z M10.0813011,19.4577439 C8.48412238,20.1858296 6.88801127,20.5560847 5.33531723,20.5560847 C4.27195491,20.5560847 3.43350725,20.3771695 2.88438808,20.2124539 C4.24277295,19.6118098 5.6648599,16.9508004 6.31825121,14.4630264 C6.71291948,12.9614162 6.80473591,11.2929605 6.5727037,9.88719774 C6.40437359,8.8747646 6.08479549,8.11224482 5.66058937,7.6795113 C6.52110145,7.79736817 9.50015298,8.44771092 12.0539308,11.9447232 C14.8230145,15.7360226 16.6721546,16.4612684 17.5312432,16.7055019 L17.1920918,17.9866629 C16.918066,17.9199247 16.5177037,17.8453766 15.9394026,17.8453766 C14.3977407,17.8453766 12.4265346,18.3888672 10.0813011,19.4577439 Z M20.3558438,18.0115122 L20.2779066,18.0864153 L20.3045974,18.1918475 C20.3907198,18.5439981 20.2280837,18.9114134 19.9070821,19.0850038 C19.7899984,19.1485471 19.6565443,19.1833362 19.5245137,19.1833362 C19.229847,19.1833362 18.9586683,19.0225254 18.817029,18.7658672 C18.7725443,18.6827994 18.7419388,18.5954718 18.7280596,18.5067241 L18.7084863,18.3860273 L17.5796425,18.0892552 L17.9163027,16.8024143 L19.0629404,17.1048663 L19.1366071,16.9909143 C19.2102738,16.8773173 19.3049372,16.7871497 19.418818,16.7260913 C19.7985395,16.5209068 20.3060209,16.6735527 20.5102947,17.0477128 C20.6825395,17.3640094 20.619905,17.7619539 20.3558438,18.0115122 Z" id="Fill-2"></path>
                        <path d="M23.5309839,7.34653013 C23.507496,7.30925612 23.4879227,7.27020716 23.4630113,7.23293315 L23.4477085,7.2080838 L23.4238647,7.17613465 C23.4003768,7.14560546 23.3726184,7.1179162 23.3487746,7.08738701 C22.8569517,6.45230885 22.236657,5.93224765 21.5056844,5.5343032 L21.5014138,5.51903861 C21.2999871,4.82858192 20.5184799,3.22118456 17.647971,3.22118456 C16.955789,3.22118456 16.1757053,3.31845198 15.3290725,3.50411205 C14.4340403,3.37383051 13.6941707,3.33620151 13.1592866,3.33620151 C12.7254718,3.33620151 12.4016232,3.35856591 12.2083816,3.3780904 C12.1945024,2.76786158 12.073504,1.02876271 11.1432399,0.0152645951 L10.8265089,0.195599812 C10.86957,0.338306026 10.8891433,0.52290113 10.866723,0.569759887 C10.8514203,0.597804143 10.8083591,0.659927495 10.7499952,0.744770245 C10.3190274,1.3798484 9.9243591,2.02309134 9.945,2.44056026 C9.96742029,2.89246328 9.78663446,3.24496893 9.78521095,3.24638889 C9.78236393,3.24887382 9.5919694,3.59569962 9.20121578,3.82857345 C8.84284702,4.04369774 8.52718357,4.72847458 8.23785507,5.43703578 C8.19906441,5.5343032 8.17130596,5.60494633 8.15600322,5.63263559 C8.12966828,5.67842938 7.96845572,5.7643371 7.82219002,5.80871092 L7.84888084,6.17222128 C7.9862496,6.19281073 8.13109179,6.20275047 8.27984863,6.20275047 C9.51830274,6.20275047 10.7834477,5.47608475 11.2435974,5.1835725 C11.5688696,5.77285687 12.7073221,7.62413277 15.1554042,9.62201977 C14.9717713,9.77892561 14.8358261,9.97701036 14.7578889,10.2102392 C14.5575298,10.820113 14.4881337,11.2017279 14.4852866,11.2184124 L14.449343,11.4164972 L14.6493462,11.4374416 C14.6493462,11.4374416 14.8287085,11.4566111 15.1052254,11.4566111 C15.6628857,11.4566111 16.4536457,11.3817081 17.0863961,11.0295574 C17.3700306,11.2141525 17.6632738,11.3983927 17.9732432,11.5801478 C18.8045733,12.0696798 19.6359034,12.3721318 20.4448132,12.4953136 C20.5031771,12.5038333 20.5615411,12.5190979 20.6188374,12.5258427 C20.6825395,12.5286827 20.7465974,12.5301026 20.8092319,12.5301026 C20.8259581,12.5301026 20.8423285,12.5272627 20.8590548,12.5272627 C22.9569533,12.5052533 24.1470081,11.0810311 24.1968309,11.0199727 L24.2274364,10.9826987 L24.2359775,10.9354849 C24.2498567,10.8549021 24.554132,9.03699529 23.5309839,7.34653013 Z M17.6493945,3.59427966 C19.8483623,3.59427966 20.692504,4.59677307 21.0120821,5.27906497 C19.2924815,4.45548682 17.7173671,3.97021469 16.3913671,3.69261205 C16.8362142,3.62906874 17.2586409,3.59427966 17.6493945,3.59427966 Z M15.106649,11.082451 C15.0287118,11.082451 14.9578921,11.0810311 14.8995282,11.0781911 C14.9397424,10.9117006 15.0080709,10.6525574 15.11519,10.3266761 C15.1774686,10.1324962 15.3027375,9.98411017 15.4653736,9.8662533 C15.8561272,10.1726102 16.2757069,10.480387 16.7305185,10.7885188 C16.1689436,11.0409171 15.4863704,11.082451 15.106649,11.082451 Z M20.4255958,12.1197335 C19.6857262,11.9961968 18.9269952,11.7075895 18.1636377,11.2585264 C17.901,11.1030405 17.6522415,10.9464896 17.4073977,10.7899388 C17.2963639,10.7175207 17.1906683,10.6468776 17.0821256,10.5748145 C16.5817617,10.2407684 16.1159179,9.90352731 15.6920676,9.56948117 C15.589219,9.48889831 15.4974026,9.40867043 15.3998921,9.32950753 C12.5628357,7.00289925 11.4952029,4.86017608 11.4813237,4.83390678 L11.3852367,4.63440207 L11.2044509,4.76184369 C11.1891481,4.7728484 9.81866345,5.73238795 8.47842834,5.82397552 C8.48127536,5.82007062 8.48269887,5.81581073 8.48554589,5.81155085 C8.50369565,5.77818173 8.53821578,5.69511394 8.5855475,5.58009699 C8.72469565,5.23753107 9.0944525,4.33053013 9.39445733,4.15161488 C9.87702738,3.86478249 10.1062126,3.44305367 10.1161771,3.42494915 C10.1257858,3.40719962 10.3482093,2.98263089 10.3204509,2.42387571 C10.3037246,2.07456497 10.8542673,1.26199153 11.0613881,0.956699623 C11.1307842,0.855527307 11.180963,0.780624294 11.1976892,0.747255179 C11.2005362,0.743350282 11.2019597,0.739090395 11.2044509,0.734830508 C11.8717214,1.89422976 11.8357778,3.56801036 11.8357778,3.58611488 L11.8300837,3.81046893 L12.0525072,3.77603484 C12.0567778,3.77603484 12.4585636,3.7135565 13.1617778,3.7135565 C13.6012866,3.7135565 14.1810113,3.73840584 14.8746167,3.82324859 C15.0315588,3.84241808 15.1941948,3.86336252 15.3639485,3.88963183 C16.8678873,4.11860075 18.8184525,4.62446234 21.0078116,5.69511394 C21.0441111,5.71321846 21.0786312,5.72848305 21.1149308,5.74516761 C21.195715,5.78528154 21.2708052,5.83249529 21.3483865,5.87544915 C21.9975072,6.2318597 22.5551675,6.6880226 23.001438,7.24393785 C23.0181643,7.26062241 23.03062,7.27020716 23.0459227,7.28689171 C23.1000161,7.25103766 23.155533,7.21056874 23.2071353,7.17897458 C22.7886232,7.43669774 22.2896828,7.82789736 21.8476828,8.30216478 C21.5583543,8.61278154 21.2928696,8.95925235 21.0953575,9.32950753 C20.6437488,10.1697702 20.401752,11.196048 20.4255958,12.1197335 Z M23.8744058,10.819048 C23.6783172,11.0352373 22.5900435,12.1349981 20.8480225,12.1513277 C20.8341433,12.1513277 20.8231111,12.1541676 20.8092319,12.1541676 C20.8049614,12.1541676 20.8021143,12.1541676 20.7992673,12.1541676 C20.7686618,11.2918955 21.0038969,10.290467 21.4263237,9.49883804 C21.6167182,9.14384746 21.8754412,8.81086629 22.1576522,8.51409416 C22.5092593,8.14277401 22.8985894,7.82505744 23.2473494,7.59360358 C24.0690709,9.00078625 23.9131965,10.5276008 23.8744058,10.819048 Z" id="Fill-3"></path>
                        <path d="M23.1324557,9.29846974 C23.1324557,9.6174083 22.6537456,9.6174083 22.6537456,9.29846974 C22.6537456,8.98131297 23.1324557,8.98131297 23.1324557,9.29846974" id="Fill-4"></path>
                    </g>
                </g>
            </g>
        </g>
    </g>
</svg>