<?xml version="1.0" encoding="UTF-8"?>
<svg width="23px" height="25px" viewBox="0 0 23 25" version="1.1" xmlns="http://www.w3.org/2000/svg" xmlns:xlink="http://www.w3.org/1999/xlink">
    <!-- Generator: sketchtool 50.2 (55047) - http://www.bohemiancoding.com/sketch -->
    <title>F9468398-C1A9-4A7D-A4CC-06F974ABB33A</title>
    <desc>Created with sketchtool.</desc>
    <defs>
        <rect id="path-1" x="0" y="0" width="26" height="26"></rect>
    </defs>
    <g id="Anasayfa-v2" stroke="none" stroke-width="1" fill="none" fill-rule="evenodd">
        <g transform="translate(-222.000000, -200.000000)" id="sutkahvaltilik">
            <g transform="translate(221.000000, 200.000000)">
                <mask id="mask-2" fill="white">
                    <use xlink:href="#path-1"></use>
                </mask>
                <g id="mask"></g>
                <g id="-g--sut_kahvaltilik" mask="url(#mask-2)" fill="#000000" fill-rule="nonzero">
                    <g transform="translate(0.722222, 0.722222)" id="Shape">
                        <path d="M22.8274336,8.65901646 L22.8274336,8.18518519 C22.8274336,6.04748765 21.5717298,4.98796091 20.6540828,4.21400617 C20.5675294,4.14079424 20.372671,3.98527572 20.2249412,3.81384156 C20.156061,3.70288683 20.1424662,3.58647531 20.1465447,3.49871193 C20.1565142,3.27498354 20.2775076,3.05443827 20.4701002,2.90983333 C20.4859608,2.89801029 20.4972898,2.88209465 20.512244,2.86936214 C20.5675294,2.82343416 20.6196427,2.77477778 20.6672244,2.72111934 C20.6871634,2.69838272 20.7061961,2.67519136 20.7247756,2.65109053 C20.768732,2.5947037 20.8067974,2.53467901 20.8416906,2.47192593 C20.8548322,2.44827984 20.8688802,2.42508848 20.8802092,2.40053292 C20.9132898,2.33095885 20.9386667,2.25820165 20.959512,2.18317078 C20.9654031,2.16179835 20.9744662,2.14133539 20.979451,2.1190535 C21.0012026,2.02219547 21.0147974,1.92215432 21.0147974,1.81893004 L21.0147974,1.36419753 C21.0147974,0.612069959 20.4048453,0 19.6553203,0 L14.6705708,0 C13.9210458,0 13.3110937,0.612069959 13.3110937,1.36419753 L13.3110937,1.81893004 C13.3110937,1.92351852 13.3255948,2.02446914 13.3477996,2.12223663 C13.3532375,2.14542798 13.3623007,2.16680041 13.3686449,2.18953704 C13.3903965,2.2659321 13.4166797,2.33914403 13.4506667,2.40962757 C13.4615425,2.4323642 13.4742309,2.45373663 13.4864662,2.47601852 C13.5249847,2.54559259 13.568488,2.61061934 13.6178824,2.67200823 C13.6314771,2.68883333 13.6446187,2.70611317 13.659573,2.72248354 C13.7239216,2.79524074 13.7946144,2.86117695 13.8730109,2.91892798 C13.8748235,2.92029218 13.876183,2.92211111 13.8779956,2.92347531 C14.0665098,3.05944033 14.1992854,3.27043621 14.2242092,3.47461111 C14.2423355,3.62103498 14.2056296,3.74926955 14.1168105,3.85476749 C14.0909804,3.88387037 14.0637908,3.91251852 14.0334292,3.938893 C13.9305621,4.02756584 13.8222571,4.11760288 13.7112331,4.20991358 C12.7768192,4.98477778 11.4980044,6.04566872 11.4980044,8.18563992 L11.4980044,13.3163868 C11.4952854,13.3141132 11.4930196,13.3113848 11.4898475,13.3091111 C10.6859434,12.6265576 10.4045316,12.0194897 10.3052898,11.6743477 C10.7498388,11.4497099 11.0588932,10.992249 11.0588932,10.4597572 C11.0588932,9.70762963 10.4489412,9.09555967 9.69941612,9.09555967 L4.26150763,9.09555967 C3.51198257,9.09555967 2.9020305,9.70762963 2.9020305,10.4597572 C2.9020305,11.0268086 3.24869717,11.5129177 3.73992157,11.7189115 C3.62935076,12.0704198 3.33842266,12.6556605 2.56850545,13.3095658 C0.817045752,14.7974506 0.210718954,16.9451523 0.310413943,18.8559383 C0.31222658,18.8959547 0.313132898,18.9355165 0.315851852,18.9750782 C0.330352941,19.1924403 0.35437037,19.4057099 0.386544662,19.6148868 C0.395154684,19.6712737 0.40648366,19.726751 0.416453159,19.7826831 C0.450440087,19.9727613 0.490771242,20.1592016 0.538352941,20.3397305 C0.546056645,20.3692881 0.551947712,20.3993004 0.560557734,20.428858 C0.604061002,20.5848313 0.651642702,20.7376214 0.704662309,20.8845 C0.725960784,20.94407 0.750884532,21.0004568 0.773542484,21.0586626 C0.77988671,21.0750329 0.783965142,21.0923128 0.790309368,21.1086831 L0.904958606,21.3924362 L0.915834423,21.3924362 C1.70569063,23.0967737 3.14356427,24.1071893 4.85333333,24.1208313 L7.07789107,24.1208313 L9.20773856,24.1208313 C10.2110327,24.1126461 11.1200697,23.7584095 11.8609847,23.1240576 C12.2529673,23.7220309 12.9218301,24.1017325 13.6641046,24.1017325 L20.6595207,24.1017325 C21.8545011,24.1017325 22.8260741,23.1263313 22.8260741,21.9281111 L22.8260741,20.4829712 L22.8283399,20.4829712 L22.8283399,8.65992593 L22.8274336,8.65992593 L22.8274336,8.65901646 Z M1.50312854,20.4061214 C1.46415686,20.2865267 1.43016993,20.1646584 1.39890196,20.0423354 C1.38213508,19.975035 1.36446187,19.9081893 1.34996078,19.8395247 C1.33364706,19.7654033 1.32186492,19.6903724 1.30872331,19.6157963 C1.24664052,19.2606502 1.2103878,18.8914074 1.20948148,18.5144342 C1.20948148,18.51307 1.20948148,18.5121605 1.20948148,18.5107963 C1.20857516,18.0797099 1.24981264,17.6399835 1.33636601,17.2052593 C1.33863181,17.1948004 1.33999129,17.1843416 1.34180392,17.1743374 C1.36491503,17.0597449 1.39391721,16.9460617 1.42382571,16.8328333 C1.44013943,16.7714444 1.45690632,16.7100556 1.47503268,16.6491214 C1.50176906,16.5549918 1.5312244,16.4622263 1.56294553,16.3703704 C1.59602614,16.2762407 1.63273203,16.1834753 1.67034423,16.0911646 C1.6916427,16.0388704 1.71112854,15.9861214 1.73378649,15.9347366 L5.60784314,15.9347366 C5.85798693,15.9347366 6.06100218,16.1384568 6.06100218,16.3894691 L6.06100218,20.0273292 C6.06100218,20.2783416 5.85798693,20.4820617 5.60784314,20.4820617 L1.52759913,20.4820617 C1.51898911,20.4570514 1.5112854,20.4315864 1.50312854,20.4061214 Z M12.3200349,21.0009115 C12.272,21.1050453 12.2216993,21.2069053 12.1677734,21.3051276 C12.1473813,21.3424156 12.1251765,21.37743 12.1043312,21.4133539 C11.9720087,21.6402654 11.8260915,21.8521708 11.6638606,22.0408848 L11.5505708,22.1723025 C10.9252113,22.8357572 10.120854,23.2027263 9.20501961,23.2100021 L4.85786492,23.2100021 C3.62844444,23.1999979 2.60430501,22.5424547 1.94269281,21.391072 L5.60784314,21.391072 C6.35736819,21.391072 6.96732026,20.7790021 6.96732026,20.0268745 L6.96732026,16.3890144 C6.96732026,15.6368868 6.35736819,15.0248169 5.60784314,15.0248169 L2.23724619,15.0248169 C2.49192157,14.6537551 2.79508497,14.3081584 3.15489325,14.0025782 C4.179939,13.1322202 4.53159041,12.3159753 4.65213072,11.8230453 L5.22809586,11.8230453 C5.47869281,11.8230453 5.6812549,11.6197798 5.6812549,11.3683128 C5.6812549,11.1168457 5.47869281,10.9135802 5.22809586,10.9135802 L4.26241394,10.9135802 C4.01227015,10.9135802 3.8092549,10.7098601 3.8092549,10.4588477 C3.8092549,10.2078354 4.01227015,10.0041152 4.26241394,10.0041152 L9.70032244,10.0041152 C9.95046623,10.0041152 10.1534815,10.2078354 10.1534815,10.4588477 C10.1534815,10.7098601 9.95046623,10.9135802 9.70032244,10.9135802 L7.54645752,10.9135802 C7.29586057,10.9135802 7.09329847,11.1168457 7.09329847,11.3683128 C7.09329847,11.6197798 7.29586057,11.8230453 7.54645752,11.8230453 L9.40803486,11.8230453 C9.52857516,12.3159753 9.87977342,13.1322202 10.9048192,14.0030329 C11.1395556,14.2022058 11.3493682,14.4195679 11.5383355,14.6487531 L11.5981525,14.7233292 C11.7041917,14.8561111 11.8016209,14.9934403 11.8936122,15.1330432 C11.9280523,15.1857922 11.9597734,15.2403601 11.9919477,15.2944733 C12.0381699,15.3699588 12.0825795,15.4458992 12.1251765,15.522749 C12.1845403,15.633249 12.2411852,15.7446584 12.2928453,15.8578868 C12.2978301,15.8692551 12.303268,15.8801687 12.3082527,15.891537 C12.807634,17.0056317 12.9431285,18.2520535 12.7922266,19.3720597 C12.7917734,19.3756975 12.7913203,19.3793354 12.7908671,19.3829733 C12.7754597,19.4957469 12.7555207,19.6062469 12.7342222,19.7162922 C12.7170022,19.8008724 12.699329,19.8854527 12.6789368,19.968214 C12.6689673,20.0095947 12.659451,20.05143 12.6490283,20.092356 C12.5842266,20.3347284 12.502658,20.566642 12.4106667,20.7903704 C12.3812113,20.8613086 12.351756,20.9322469 12.3200349,21.0009115 Z M21.9211155,19.5725967 L17.8426841,19.5725967 L17.8426841,9.56848148 L21.9211155,9.56848148 L21.9211155,19.5725967 Z M19.7309978,4.61871811 C19.8393028,4.71421193 19.9534989,4.81061523 20.0708671,4.90974691 C20.9382135,5.64141152 21.9211155,6.47129835 21.9211155,8.18518519 L21.9211155,8.65901646 L16.936366,8.65901646 L16.936366,20.4820617 L21.9211155,20.4820617 L21.9211155,21.9272016 C21.9211155,22.6243066 21.355573,23.191358 20.6608802,23.191358 L13.6650109,23.191358 C13.1606449,23.191358 12.7147364,22.8885062 12.5162527,22.4328642 C12.8148845,22.0467963 13.0682004,21.600249 13.2694031,21.1000432 C13.2784662,21.0777613 13.2870763,21.0554794 13.2961394,21.0327428 C13.3156253,20.9827222 13.3369237,20.9349753 13.3550501,20.8840453 C13.3867712,20.7958272 13.4144139,20.702607 13.4425098,20.6112058 C13.4493072,20.5889239 13.4574641,20.566642 13.4638083,20.5439053 C14.0193813,18.6817757 13.8607756,16.185749 12.4043224,14.2786008 L12.4043224,8.18518519 C12.4043224,6.47311728 13.4053508,5.64277572 14.2885577,4.91020165 C14.4045664,4.81379835 14.5174031,4.72012346 14.6248017,4.62735802 C14.690963,4.57051646 14.7498736,4.51003704 14.805159,4.44501029 C15.0593813,4.14534156 15.1722179,3.76154733 15.1232767,3.36411111 C15.1169325,3.30272222 15.0960871,3.243607 15.0811329,3.18312757 L15.2497081,3.18312757 C15.500305,3.18312757 15.7028671,2.97986214 15.7028671,2.72839506 C15.7028671,2.47692798 15.500305,2.27366255 15.2497081,2.27366255 L14.6705708,2.27366255 C14.5595468,2.27366255 14.4612113,2.22864403 14.3823617,2.16225309 C14.3665011,2.14906584 14.3510937,2.1358786 14.3374989,2.12132716 C14.3066841,2.08722222 14.2804009,2.04993416 14.260915,2.00764403 C14.2563834,1.99763992 14.2532113,1.98672634 14.2491329,1.97626749 C14.2310065,1.92670165 14.2174118,1.87486214 14.2174118,1.81938477 L14.2174118,1.36419753 C14.2174118,1.11318519 14.420427,0.909465021 14.6705708,0.909465021 L19.6553203,0.909465021 C19.9054641,0.909465021 20.1084793,1.11318519 20.1084793,1.36419753 L20.1084793,1.81893004 C20.1084793,1.88668519 20.0912593,1.95080247 20.0631634,2.0099177 C20.0559129,2.0253786 20.0441307,2.03720165 20.0350675,2.05129835 C20.0096906,2.09267901 19.979329,2.13087654 19.9408105,2.16316255 C19.8628671,2.22909877 19.7654379,2.27366255 19.6553203,2.27366255 L17.0618911,2.27366255 C16.8112941,2.27366255 16.608732,2.47692798 16.608732,2.72839506 C16.608732,2.97986214 16.8112941,3.18312757 17.0618911,3.18312757 L19.2855425,3.18312757 C19.2651503,3.27361934 19.2452113,3.36456584 19.2406797,3.45733128 C19.2207407,3.90205967 19.3875033,4.3081358 19.7223878,4.61189712 L19.7309978,4.61871811 Z"></path>
                    </g>
                </g>
            </g>
        </g>
    </g>
</svg>