<?xml version="1.0" encoding="UTF-8"?>
<svg width="24px" height="26px" viewBox="0 0 24 26" version="1.1" xmlns="http://www.w3.org/2000/svg" xmlns:xlink="http://www.w3.org/1999/xlink">
    <title>petShop</title>
    <g id="Page-1" stroke="none" stroke-width="1" fill="none" fill-rule="evenodd">
        <g id="petShop" fill="#000000" fill-rule="nonzero">
            <path d="M17.1557679,13.6670853 C16.7043212,13.6658392 16.2711325,13.8468873 15.9527679,14.1699012 L15.4285714,14.6990149 L14.9044286,14.1700634 C14.4746285,13.7362913 13.8481659,13.5668685 13.2610232,13.725615 C12.6738805,13.8843616 12.2152587,14.34716 12.0579161,14.9396787 C11.9005735,15.5321973 12.0684142,16.1644185 12.4982143,16.5981906 L15.1254107,19.2495436 C15.2057841,19.3306585 15.3147962,19.3762287 15.4284643,19.3762287 C15.5421323,19.3762287 15.6511445,19.3306585 15.7315179,19.2495436 L18.3589286,16.5981906 C18.845532,16.1071228 18.9910875,15.3685914 18.7277196,14.7269889 C18.4643517,14.0853863 17.8439292,13.6670853 17.1557679,13.6670853 L17.1557679,13.6670853 Z M17.7527679,15.9864148 L17.7527679,15.9864148 L15.4285714,18.332042 L13.104375,15.9864148 C12.7823823,15.6524252 12.7860128,15.1193388 13.1125238,14.789847 C13.4390349,14.4603552 13.9672754,14.4567154 14.2982143,14.7816771 L15.1254107,15.6164624 C15.2057841,15.6975773 15.3147962,15.7431475 15.4284643,15.7431475 C15.5421323,15.7431475 15.6511445,15.6975773 15.7315179,15.6164624 L16.5589286,14.781623 C16.8897225,14.4556796 17.4187659,14.4588699 17.7456764,14.7887795 C18.0725869,15.1186892 18.0757482,15.6525861 17.7527679,15.9864148 L17.7527679,15.9864148 Z" id="Shape"></path>
            <path d="M23.7899464,6.98045405 L12.2185179,0.0604023145 C12.083365,-0.0204046198 11.9152351,-0.0201141916 11.7803571,0.0611591952 L0.208928571,7.03100287 C0.0793637575,7.10904194 0,7.2500896 0,7.40236096 L0,25.5674968 C0,25.8063617 0.191877964,26 0.428571429,26 L0.429482143,26 L23.5723393,25.9502081 C23.808677,25.9497012 24,25.7562113 24,25.5177048 L24,7.35256902 C24,7.19981183 23.9201335,7.05838789 23.7899464,6.98045405 Z M8.57142857,13.8762315 L8.57142857,15.1376272 C8.57143409,15.3014357 8.66314154,15.451184 8.80832143,15.5244473 L10.3017857,16.2780301 C10.864991,16.5599351 11.2662638,17.0901238 11.3875714,17.7126434 L11.5797857,18.6824778 C11.5963816,18.7662093 11.6371664,18.8431096 11.697,18.9034869 L11.7404464,18.947332 C12.0496811,19.2588011 12.0769254,19.7552815 11.8036607,20.0993043 L11.6655,20.2736031 L11.6655,20.2736031 L11.5273393,20.4479019 C11.1779831,20.8886172 10.6591783,21.1583316 10.1007804,21.1895363 C9.54238247,21.220741 8.99724099,21.0104825 8.60180357,20.6113881 L8.44607143,20.4542273 C8.27869956,20.2853199 8.00733615,20.2853199 7.83996429,20.4542273 C7.67259242,20.6231347 7.67259242,20.8969876 7.83996429,21.065895 L7.99569643,21.2230558 C8.52528815,21.7575485 9.24363422,22.057764 9.99261967,22.0576221 C10.7416051,22.0574801 11.4598394,21.7569923 11.9892321,21.222299 L12.5224821,21.8954903 C12.5780773,21.9656173 12.6539256,22.0165396 12.7395,22.0411898 L12.8548393,22.0744925 C14.2238342,22.4742108 15.2255621,23.6580901 15.4023214,25.0852016 L5.45946429,25.0852016 L5.29339286,24.5403016 C4.40502458,21.6336684 4.82666061,18.4799441 6.44657143,15.9148355 L6.79028571,15.3698274 C6.7981873,15.3572899 6.80544682,15.3443519 6.81203571,15.3310643 L6.91119643,15.1310316 C7.23559608,14.4702989 7.85188432,14.0045095 8.57142857,13.8762315 Z M13.1063571,21.247276 L12.5460536,20.5404576 C13.0009778,19.8753695 12.9383632,18.9809088 12.3953036,18.38697 L12.2280536,17.5429399 C12.0556257,16.658371 11.4854535,15.9049926 10.6851964,15.5043359 L9.42857143,14.8703402 L9.42857143,13.5666674 L11.1816429,13.4058302 C11.3294472,13.3922719 11.4597798,13.3025071 11.5261607,13.1685481 L11.9547321,12.3035417 C12.0583685,12.0902553 11.9721512,11.832536 11.7616184,11.726289 C11.5510855,11.6200419 11.2950445,11.7050381 11.188125,11.9166675 L10.8662679,12.5662333 L6.64371429,12.9534859 L6.16575,12.229908 L6.22183929,12.192064 C6.87660572,11.7498437 7.17184688,10.9303779 6.95142857,10.1670298 L8.33453571,9.46913172 C8.42841271,9.42176285 8.50180152,9.34127563 8.54078571,9.24293253 L9.06578571,7.91839138 C9.22929624,7.50472982 9.56532657,7.18494427 9.98410714,7.04446453 L11.0019643,6.7020301 C11.1584778,6.64970909 11.3199793,6.61403217 11.4838393,6.59558024 C11.6553664,6.79452685 11.8094118,7.00816042 11.9442321,7.23406314 L12.3807321,7.96829144 C12.692522,8.49268792 12.8571966,9.09275284 12.8571429,9.70430535 L12.8571429,10.6086156 C12.8571429,11.8029403 13.8165327,12.7711317 15,12.7711317 C16.1834673,12.7711317 17.1428571,11.8029403 17.1428571,10.6086156 C17.1427811,10.4332964 17.131867,10.2581529 17.1101786,10.0842054 C17.2818214,10.3079177 17.446,10.5381355 17.6027143,10.774859 C18.9980151,12.8921018 19.8799358,15.3110383 20.1771429,17.8360149 C20.4349042,20.0248727 20.2426883,22.2438565 19.6125,24.3543793 L19.3928571,25.094176 L16.2654643,25.1009339 C16.0903542,23.2861554 14.8399834,21.7608823 13.1063571,21.247276 Z M5.60946429,11.3879864 C5.54127787,11.2847641 5.52029575,11.156963 5.55185051,11.0370635 C5.58340527,10.9171641 5.66445852,10.8167113 5.77441071,10.7612351 L6.160125,10.5666087 C6.2016837,10.9229584 6.04199498,11.2727825 5.74660714,11.4724867 L5.69057143,11.5103307 L5.60946429,11.3879864 Z M15.1568571,8.08176947 C15.8737034,8.72243303 16.284583,9.64207172 16.2857218,10.6083993 C16.2873858,11.1003208 16.0117609,11.5504071 15.5750357,11.7689136 C15.212826,11.9505627 14.7872276,11.9505627 14.4250179,11.7689136 C13.9882629,11.5504322 13.7126115,11.1003366 13.7142857,10.6083993 L13.7142857,9.70430535 C13.7142293,8.93622633 13.5073789,8.18259576 13.1158393,7.52394843 L12.6793393,6.78972013 C12.6669107,6.76885184 12.6533036,6.74868638 12.6406071,6.72798029 C13.3578426,6.92465921 14.0345282,7.24896963 14.6388214,7.68565057 C14.8156071,7.81298673 14.9882857,7.94502637 15.1568571,8.08176947 Z M23.1428571,25.0861207 L20.2881964,25.0922298 L20.4336429,24.6029605 C21.0975241,22.3792133 21.2999524,20.041213 21.0282857,17.7349713 C20.7152668,15.0745037 19.7861439,12.5257371 18.3160714,10.2948345 C17.5983977,9.2072783 16.7191829,8.23763317 15.7092857,7.4199314 C15.6057857,7.32845697 15.497625,7.24152382 15.3845357,7.15994289 C15.3714346,7.1505518 15.3578242,7.1419063 15.3437679,7.13404676 C15.2754107,7.082687 15.2066786,7.03165162 15.1371964,6.98158937 C14.3149811,6.38712726 13.3764112,5.97678741 12.3843214,5.778041 C11.8337053,5.66710048 11.2639448,5.70289513 10.7312143,5.88189584 L9.71335714,6.22427621 C9.05527612,6.44500197 8.52720532,6.94747244 8.27019643,7.59747398 L7.80535714,8.76928743 L5.39094643,9.98754091 C5.06109886,10.1539795 4.8179509,10.4553422 4.72329713,10.8150395 C4.62864336,11.1747369 4.69159771,11.5581347 4.89616071,11.8677947 L5.21464286,12.3498195 L5.21464286,12.3498195 L5.21464286,12.3498195 L6.07178571,13.6473292 C6.15895256,13.7792544 6.31066557,13.8524668 6.46714286,13.8381172 L6.84873214,13.8030844 C6.55841517,14.070118 6.31955646,14.3890497 6.14421429,14.743779 L6.05491071,14.9240247 L5.72308929,15.4501649 C3.96815754,18.2290133 3.51138015,21.6455529 4.47380357,24.7943972 L4.57483929,25.1258028 L0.857142857,25.1338582 L0.857142857,7.64791467 L12.0008036,0.935734796 L23.1428571,7.5990418 L23.1428571,25.0861207 Z" id="Shape"></path>
            <ellipse id="Oval" cx="9.85714286" cy="18.1651499" rx="1" ry="1"></ellipse>
            <ellipse id="Oval" cx="10.125" cy="9.35289648" rx="1" ry="1"></ellipse>
        </g>
    </g>
</svg>