<svg width="20" height="29" viewBox="0 0 20 29" fill="none" xmlns="http://www.w3.org/2000/svg">
    <path d="M10.1895 20.3135C11.543 20.3135 12.7256 19.9033 13.7373 19.083C14.749 18.2627 15.3096 17.2373 15.4189 16.0068H19.0078C18.9395 17.2783 18.502 18.4883 17.6953 19.6367C16.8887 20.7852 15.8086 21.7012 14.4551 22.3848C13.1152 23.0684 11.6934 23.4102 10.1895 23.4102C7.16797 23.4102 4.76172 22.4053 2.9707 20.3955C1.19336 18.3721 0.304688 15.6104 0.304688 12.1104V11.4746C0.304688 9.31445 0.701172 7.39355 1.49414 5.71191C2.28711 4.03027 3.42188 2.72461 4.89844 1.79492C6.38867 0.865234 8.14551 0.400391 10.1689 0.400391C12.6572 0.400391 14.7217 1.14551 16.3623 2.63574C18.0166 4.12598 18.8984 6.06055 19.0078 8.43945H15.4189C15.3096 7.00391 14.7627 5.82812 13.7783 4.91211C12.8076 3.98242 11.6045 3.51758 10.1689 3.51758C8.24121 3.51758 6.74414 4.21484 5.67773 5.60938C4.625 6.99023 4.09863 8.99316 4.09863 11.6182V12.3359C4.09863 14.8926 4.625 16.8613 5.67773 18.2422C6.73047 19.623 8.23438 20.3135 10.1895 20.3135Z" fill="#fa750e"/>
    <path d="M1 27L19 27" stroke="#fa750e" stroke-width="3"/>
</svg>
